<?xml version="1.0" encoding="utf-8"?>
<!-- Generator: Adobe Illustrator 17.1.0, SVG Export Plug-In . SVG Version: 6.00 Build 0)  -->
<!DOCTYPE svg PUBLIC "-//W3C//DTD SVG 1.1//EN" "http://www.w3.org/Graphics/SVG/1.1/DTD/svg11.dtd">
<svg version="1.1" id="Isolation_Mode" xmlns="http://www.w3.org/2000/svg" xmlns:xlink="http://www.w3.org/1999/xlink" x="0px"
	 y="0px" viewBox="0 0 189.3 441" enable-background="new 0 0 189.3 441" xml:space="preserve">
<g>
	<path fill="#6E4227" d="M120.1,130.9c0,0,2-1,2.3,0.9c0,0-2.1,1.2-3,1.6l0.7-2.4"/>
	<g>
		<path fill="#68473E" d="M136.7,419.6L126.6,432c0,0-2.5,5.3,3.2,6c5.7,0.7,10.7-6.6,13.3-11.4c2.6-4.8-0.8-7.5-0.8-7.5
			L136.7,419.6z"/>
		<path fill="#F6E0D0" d="M126.6,314l10.2,105.7c0,0,0,5.3,6.1,2.4l2.4-108.8L126.6,314z"/>
	</g>
	<g>
		<path fill="#68473E" d="M154,422.9l-10.9,11.8c0,0-2.8,5.2,2.8,6.2c5.6,1,11.2-6,14-10.7c2.9-4.7-0.3-7.5-0.3-7.5L154,422.9z"/>
		<path fill="#F6E0D0" d="M149.7,310.1l4.3,112.7c0,0-0.3,5.3,5.9,2.7l7.8-115.8L149.7,310.1z"/>
	</g>
	<path fill="none" stroke="#68473E" stroke-width="2.2801" stroke-miterlimit="10" d="M85.1,43.1c0,3.6-2.9,6.5-6.5,6.5h-5
		c-3.6,0-6.5-2.9-6.5-6.5l0,0c0-3.6,2.9-6.5,6.5-6.5h5C82.2,36.6,85.1,39.5,85.1,43.1L85.1,43.1z"/>
	<path fill="#68473E" d="M70.1,47.8c0,0-18.8,30.8,4.7,42.7l10.1-15.2L70.1,47.8z"/>
	<path fill="#BC212F" d="M180.4,136c0-6.1-5.2-11.9-10.6-16.3C139.9,91.5,43.5,94.4,43.5,94.4l12.8,17
		c100.6-3.8,99.2,27.2,99.2,27.2l13.2-1.4l0.4,0.8L180.4,136z"/>
	<path fill="#6E4227" d="M152,126.2c0,0-2.2-0.2-2.4,1.7c0,0,2.1,1.2,3,1.6l-0.7-2.4"/>
	<path fill="#F6E0D0" d="M66.8,68.2c0,0-1.3,6.6,7.1,20.9c4.6,7.9,6.7,13.7,7.6,21.3l6.7-3.3c0,0,16.7,19.9,33.3,10
		c0,0,6.2,5.9,4.1,13.3c0,0-6.4,2-10.4,7.2c-4,5.1-16.1,16.2-43.4,20.2L69.8,172c0,0,25.1-6.2,33-9c8-2.8,14.4-3.7,14.1,4.3
		l49.7-11.8c0,0,3.2-12-4.8-20.2c-8-8.2-19.2-8.6-19.2-8.6l-11-19.1c0,0,5.5-12,0.8-29.4L66.8,68.2z"/>
	<path fill="#017086" d="M119.6,154.3c0,0-6.2-17.1-4.9-19.4c1.3-2.3,6.3-4.3,6.3-4.3s-0.7,7.2,10.2,10.8
		c10.9,3.6,19.9-8.3,20.8-15.3c0,0,4.1,0.4,8,2.5c3.1,1.6,7.3,8.4,7.9,19.2c0.6,9.5,1,56.2,2.2,82.3c1.2,26.1-2.4,83,7.4,98.4H120
		c0,0,2.8-161-5.4-166.9C114.6,161.6,120.9,161.7,119.6,154.3z"/>
	<path fill="#68473E" d="M169.9,52.9c-6.4-24.5-27.5-27.5-39.5-21.6c-12,5.9-9.1,18.9-9.1,18.9l-3.9,2.8c-5-3.1-11.6-5.2-20.5-5.1
		c-16.5,0-26.2,12.2-29,20.5c-1.6,4.7-0.4,8.8-0.4,8.8c31.8,16.7,64.8,2,64.8,2s-0.3-10.9-7.6-19.8l1.6-1.3
		c26.6,41.5,63,20.9,63,20.9C183,78.2,175.7,75.2,169.9,52.9z"/>
	<path fill="#F6E0D0" d="M165.2,183.8c0,0,1,17.9,1.5,33.9c0.6,16-1.5,27.8-2.9,33.2c-1.4,5.4-2.5,9.1-0.6,9.1
		c1.9,0,3.7-11.3,3.6-8.3c-0.1,3.8-0.5,8.2-0.7,15.7c-0.2,7.5-0.5,11,4.2,8.2c4.7-2.8,4.8-10.9,5.7-21.6c0.9-10.8,1-54.3-2.6-84.9
		C173.4,169.1,167.2,183,165.2,183.8z"/>
	<path fill="#F6E0D0" d="M81.7,29.4c0,0-2,10.5-2,14.9c0,4.3,2,15.3,2,15.3h-7.5l-4.3,12.6c0,0,0,4.7-8.3,3.9
		c-8.3-0.8-11.8-2-11.8-2s-5.2,11.8-2,18.1c3.2,6.3,22.7,32.4,22.7,32.4L16.3,94.6c0,0,14.6-8.3,16.9-15.7
		c2.4-7.5,3.9-20.1,3.9-20.1L45.5,19L81.7,29.4z"/>
	<path fill="#F6E0D0" d="M16.3,306.1c0,0-1.3,12.1,6.6,38.2c7.9,26.1,16.2,53.1,11.4,65.9l16.6,7.4c0,0-7.9-12.9-7-37.1
		c0.9-24.2,1.8-78.4,1.8-78.4L16.3,306.1z"/>
	<path fill="#68473E" d="M52.9,25.7l28.8,6.6c0,0,9-26.6-21.7-31.7C12.1-7.5,7.9,77.2,7.9,77.2L38.5,84L52.9,25.7z"/>
	<path fill="#E6C2AF" d="M14.5,315.6c0,0,23.7,40.3,30.1,81.1c0,0-1.5-17.9,1.6-29.7c3.2-11.8-2.2-53.8-2.2-53.8L14.5,315.6z"/>
	<path fill="#F6E0D0" d="M30.2,313.2c0,0-1.3,12.1,6.6,38.2c7.9,26.1,16.2,53.1,11.4,65.9l16.6,7.4c0,0-7.9-12.9-7-37.1
		c0.9-24.2,1.8-78.4,1.8-78.4L30.2,313.2z"/>
	<path fill="#6E4227" d="M49.8,411.7c0,0,3.8,4.5,11.4,4.7c0,0,2.8,5.2,10.5,8.2c10.8,4.3,9.6,10.4,3.2,10.4h-4.8
		c0,0-8.1-2.9-15-5.4v5.4h-7.2v-7.8C47.7,427.2,43.2,416.5,49.8,411.7z"/>
	<path fill="#6E4227" d="M35.7,404.9c0,0,3.8,4.5,11.4,4.7c0,0,2.8,5.2,10.5,8.2c10.8,4.3,9.6,10.4,3.2,10.4h-4.8
		c0,0-8.1-2.9-15-5.4v5.4h-7.2v-7.8C33.6,420.3,29.2,409.6,35.7,404.9z"/>
	<path fill="#BC212F" d="M22.6,90.5c2.5-1.7,44.7,31.1,44.7,31.1s12.8,9.2,10.2,25.2c-2.6,16-12.8,24.9-12.8,53.5
		c0,29.9-2.1,116-2.1,116s-45.9,14-46.3,12.2c-0.4-1.7-22-47.6-4.3-176.6C11.9,151.9-9.4,112.1,22.6,90.5z"/>
	<circle fill="#ED6695" cx="56.9" cy="192.6" r="2.1"/>
	<circle fill="#ED6695" cx="56.9" cy="207.5" r="2.1"/>
	<circle fill="#ED6695" cx="56.9" cy="222" r="2.1"/>
	<path fill="#A41B27" d="M87.9,170.3C58.4,168.5,25.8,141,14.7,125c-4.6-6.7-10.3-5.1-12.4,1.1c-2.1,6.3,5.4,22.3,13.9,30
		c0,0,28.2,26.9,64.3,32.6c0,0,34.7,2.5,60.9-14l-6.6-13.5C135,161.3,121.1,172.3,87.9,170.3z"/>
	<circle fill="#68473E" cx="64.9" cy="42" r="1.9"/>
	<path fill="none" stroke="#68473E" stroke-width="2.2801" stroke-miterlimit="10" d="M74.5,43.1c0,3.6-2.9,6.5-6.5,6.5h-5
		c-3.6,0-6.5-2.9-6.5-6.5l0,0c0-3.6,2.9-6.5,6.5-6.5h5C71.6,36.6,74.5,39.5,74.5,43.1L74.5,43.1z"/>
	<line fill="none" stroke="#68473E" stroke-width="2.7794" stroke-miterlimit="10" x1="74.5" y1="43.1" x2="82.4" y2="43.1"/>
	<line fill="none" stroke="#68473E" stroke-width="3.0248" stroke-miterlimit="10" x1="47.1" y1="43.1" x2="56.5" y2="43.1"/>
	<path fill="#F6E0D0" d="M167,130.2c-0.5-0.3-0.9-0.3-1.3-0.3c-0.6,15.9-6.8,20.6-6.8,20.6c5.2-7.4,5.6-17,5.6-19.9
		c0-0.4-0.1-1.7-1.5-2c-0.4-0.1-0.9,0-1.2,0.3c-0.5,15.4-8.3,21.1-8.3,21.1c6.3-8.1,7-18.6,7.1-19.8c0,0,0,0,0,0
		c-1.5-2.9-3.1,0.1-3.1,0.1c-0.8,9.8-9.6,21.8-9.6,21.8s3.3-8.4,4.2-13.1c0.5-2.8-2.5-4.6-6.8,5.9c-4.2,10.2-10.3,16.3-10.3,16.3
		l6.6,13.5c13.3-5.7,21.8-20.3,24.3-27.1C168.3,140.9,168.7,131.2,167,130.2z"/>
	<path fill="#F6E0D0" d="M15.3,205.5c0.4-0.2,0.6-0.5,0.8-0.7C5.7,197,5.4,190.7,5.4,190.7c2.6,6.9,8.8,11.6,10.7,12.9
		c0.3,0.2,1.2,0.7,2-0.1c0.3-0.2,0.4-0.6,0.4-0.9c-10-7.5-10.3-15.3-10.3-15.3c2.5,8,9.2,13.3,9.9,13.9c0,0,0,0,0,0
		c2.7,0.3,1.4-2.1,1.4-2.1c-6.2-5.1-10.1-16.5-10.1-16.5s4.1,6.1,6.8,8.8c1.6,1.6,4.2,0.4-0.8-7.3c-4.9-7.5-6.1-14.4-6.1-14.4
		l1.5-9.7c-16.5,13.5-10.1,31.8-6.7,36.6C7.6,201.4,13.9,206.2,15.3,205.5z"/>
	<g>
		<path fill="#F6E0D0" d="M167.2,137c0,0,0,12.9-5.3,21.9c-5.1,8.9-7.5,11-5.2,11.6c2.3,0.6,9.8-10.5,9.8-10.5
			c-5.3,16.4-14.5,24.5-13.7,26.5c0.5,1.3,1.2,1,1.7,0.7c0,0,8.1-8.6,12.1-17.4c0,0-2.8,8-11.5,18.5c0.2,0.4,0.6,1,1.2,1.1
			c1.5,0.2,2.5-1.6,2.5-1.6c2.2-2.7,7.5-9.7,10.3-16.7c0,0-1.7,6.9-9.5,17.6c0.5,0.4,1.1,0.8,1.7,0.7c1.1-0.4,2.5-1.9,2.5-1.9
			c-0.3,1.9,1.9,1.7,1.9,1.7c17.9-15.9,14.8-54.4,14.8-54.4L167.2,137z"/>
	</g>
</g>
</svg>
