<?xml version="1.0" encoding="utf-8"?>
<!-- Generator: Adobe Illustrator 17.1.0, SVG Export Plug-In . SVG Version: 6.00 Build 0)  -->
<!DOCTYPE svg PUBLIC "-//W3C//DTD SVG 1.1//EN" "http://www.w3.org/Graphics/SVG/1.1/DTD/svg11.dtd">
<svg version="1.1" id="Layer_1" xmlns="http://www.w3.org/2000/svg" xmlns:xlink="http://www.w3.org/1999/xlink" x="0px" y="0px"
	 viewBox="0 0 40.4 24" enable-background="new 0 0 40.4 24" xml:space="preserve">
<g>
	<path fill="#DBD1C5" d="M16,24c8.9,0,16-7.2,16-16V0H0v8C0,16.9,7.2,24,16,24z"/>
	<path fill="#68483F" d="M16,19.1c-6.1,0-11.1-5-11.1-11.1V4.9h22.2V8C27.2,14.1,22.2,19.1,16,19.1z"/>
	<path fill="#DBD1C5" d="M34.9,4.1c-3.1,0-5.6,2.5-5.6,5.6c0,3.1,2.5,5.6,5.6,5.6c3.1,0,5.6-2.5,5.6-5.6C40.4,6.6,37.9,4.1,34.9,4.1
		z M34.9,12.6c-1.6,0-2.9-1.3-2.9-2.9c0-1.6,1.3-2.9,2.9-2.9c1.6,0,2.9,1.3,2.9,2.9C37.8,11.3,36.5,12.6,34.9,12.6z"/>
	<path fill="#E8E8EB" d="M16,19.1c5.2,0,9.5-3.6,10.8-8.4H5.3C6.5,15.5,10.8,19.1,16,19.1z"/>
</g>
</svg>
