<?xml version="1.0" encoding="utf-8"?>
<!-- Generator: Adobe Illustrator 17.1.0, SVG Export Plug-In . SVG Version: 6.00 Build 0)  -->
<!DOCTYPE svg PUBLIC "-//W3C//DTD SVG 1.1//EN" "http://www.w3.org/Graphics/SVG/1.1/DTD/svg11.dtd">
<svg version="1.1" id="Layer_1" xmlns="http://www.w3.org/2000/svg" xmlns:xlink="http://www.w3.org/1999/xlink" x="0px" y="0px"
	 viewBox="-131.4 -16 400.7 238" enable-background="new -131.4 -16 400.7 238" xml:space="preserve">
<g>
	<rect x="-131.4" y="94.4" fill="#462D26" width="17.8" height="26"/>
	<rect x="252" y="95.1" fill="#462D26" width="17.8" height="26"/>
</g>
<ellipse fill="#462D26" cx="69.2" cy="115.9" rx="200.6" ry="106.1"/>
<ellipse fill="#68483F" cx="69.2" cy="94.4" rx="200.6" ry="110.7"/>
<g>
	<g>
		<path fill="#DBD1C5" d="M213.7,94.4c0,17.9-14.5,32.3-32.3,32.3S149,112.2,149,94.4S163.5,62,181.3,62S213.7,76.5,213.7,94.4z"/>
		<circle fill="#E8E8EB" cx="181.3" cy="94.4" r="17.9"/>
	</g>
	<g>
		<g>
			<path fill="#DBD1C5" d="M166.3,44c0,0.9-0.7,1.5-1.7,1.5h-13.4c-0.9,0-1.7-0.6-1.7-1.5l0,0c0-0.9,0.7-1.5,1.7-1.5h13.4
				C165.5,42.5,166.3,43.1,166.3,44L166.3,44z"/>
			<path fill="#DBD1C5" d="M166.3,53.9c0,0.9-0.7,1.5-1.7,1.5h-13.4c-0.9,0-1.7-0.6-1.7-1.5l0,0c0-0.9,0.7-1.5,1.7-1.5h13.4
				C165.5,52.4,166.3,53.2,166.3,53.9L166.3,53.9z"/>
			<path fill="#DBD1C5" d="M166.3,49c0,0.7-0.7,1.5-1.7,1.5h-13.4c-0.9,0-1.7-0.6-1.7-1.5l0,0c0-0.7,0.7-1.5,1.7-1.5h13.4
				C165.5,47.5,166.3,48.2,166.3,49L166.3,49z"/>
			<path fill="#DBD1C5" d="M169.8,50.8c0,2.6-2.1,4.7-4.7,4.7l0,0c-2.6,0-4.7-2.1-4.7-4.7v-3.6c0-2.6,2.1-4.7,4.7-4.7l0,0
				c2.6,0,4.7,2.1,4.7,4.7V50.8z"/>
		</g>
		<path fill="#DBD1C5" d="M167.2,47.3h18.6c0,0,28.4-4.9,28.4,1.2s-28.4,2.1-28.4,2.1h-18.6V47.3z"/>
	</g>
	<g>
		<path fill="#DBD1C5" d="M172.6,137h13.7c0,0,30.4-5.3,30.4,1.4c0,6.7-30.4,2.2-30.4,2.2h-13.6L172.6,137L172.6,137z"/>
		<path fill="#DBD1C5" d="M186.3,137h-40.1c0,0-1.7,4.8,6.2,6.5c12.1,2.7,13-2.6,32.2-2.9L186.3,137z"/>
	</g>
</g>
<g>
	<g>
		<path fill="#DBD1C5" d="M-75.5,94.4c0,17.9,14.5,32.3,32.3,32.3s32.4-14.4,32.4-32.3S-25.2,62-43.1,62S-75.5,76.5-75.5,94.4z"/>
		<circle fill="#E8E8EB" cx="-43.1" cy="94.4" r="17.9"/>
	</g>
	<g>
		<g>
			<path fill="#DBD1C5" d="M-28,44c0,0.9,0.7,1.5,1.7,1.5H-13c0.9,0,1.7-0.6,1.7-1.5l0,0c0-0.9-0.7-1.5-1.7-1.5h-13.5
				C-27.3,42.5-28,43.1-28,44L-28,44z"/>
			<path fill="#DBD1C5" d="M-28,53.9c0,0.9,0.7,1.5,1.7,1.5H-13c0.9,0,1.7-0.6,1.7-1.5l0,0c0-0.9-0.7-1.5-1.7-1.5h-13.5
				C-27.3,52.4-28,53.2-28,53.9L-28,53.9z"/>
			<path fill="#DBD1C5" d="M-28,49c0,0.7,0.7,1.5,1.7,1.5H-13c0.9,0,1.7-0.6,1.7-1.5l0,0c0-0.7-0.7-1.5-1.7-1.5h-13.5
				C-27.3,47.5-28,48.2-28,49L-28,49z"/>
			<path fill="#DBD1C5" d="M-31.4,50.8c0,2.6,2.1,4.7,4.7,4.7l0,0c2.6,0,4.7-2.1,4.7-4.7v-3.6c0-2.6-2.1-4.7-4.7-4.7l0,0
				c-2.6,0-4.7,2.1-4.7,4.7V50.8z"/>
		</g>
		<path fill="#DBD1C5" d="M-29,47.3h-18.6c0,0-28.4-4.9-28.4,1.2s28.4,2.1,28.4,2.1H-29C-29,50.6-29,47.3-29,47.3z"/>
	</g>
	<g>
		<path fill="#DBD1C5" d="M-34.4,137H-48c0,0-30.4-5.3-30.4,1.4c0,6.7,30.4,2.2,30.4,2.2h13.6C-34.4,140.6-34.4,137-34.4,137z"/>
		<path fill="#DBD1C5" d="M-48,137h40.1c0,0,1.7,4.8-6.2,6.5c-12.1,2.7-13-2.6-32.2-2.9L-48,137z"/>
	</g>
</g>
</svg>
