<?xml version="1.0" encoding="utf-8"?>
<!-- Generator: Adobe Illustrator 17.1.0, SVG Export Plug-In . SVG Version: 6.00 Build 0)  -->
<!DOCTYPE svg PUBLIC "-//W3C//DTD SVG 1.1//EN" "http://www.w3.org/Graphics/SVG/1.1/DTD/svg11.dtd">
<svg version="1.1" id="Isolation_Mode" xmlns="http://www.w3.org/2000/svg" xmlns:xlink="http://www.w3.org/1999/xlink" x="0px"
	 y="0px" viewBox="0 0 55.5 71.4" enable-background="new 0 0 55.5 71.4" xml:space="preserve">
<g>
	<path d="M32.8,28.6c0,0-8.8-1.8-9-11.1c-0.3-9.3,0-17.5,0-17.5h2.1l7,4.4h12.1L49.8,0h2.3v19.6c0,0,0,7.2-8.3,9
		c0,0,7.7,7.2,10.1,21.2c2.3,13.9,1.3,21.7,1.3,21.7H22.5c0,0-9.5,0.3-9.5-13.2c0-13.4,0-32.5,0-32.5s-0.5-5.2-4.1-5.2
		c-3.6,0-4,4-6.2,3.9c-2.5-0.1-4.4-3.9,0-7.5C7,13.4,16,14.3,17.9,19.6c1.9,5.2,1.5,9.5,1.5,9.5l-0.4,28.5c0,0-0.4,6.6,3.3,6.6
		C22.2,64.1,20.1,39.7,32.8,28.6z"/>
	<g>
		<circle fill="#FFFFFF" cx="32.6" cy="14.2" r="2.2"/>
		<circle cx="32.6" cy="14.2" r="0.8"/>
	</g>
	<g>
		<circle fill="#FFFFFF" cx="44.6" cy="14.2" r="2.2"/>
		<circle cx="44.6" cy="14.2" r="0.8"/>
	</g>
</g>
</svg>
