<?xml version="1.0" encoding="utf-8"?>
<!-- Generator: Adobe Illustrator 17.1.0, SVG Export Plug-In . SVG Version: 6.00 Build 0)  -->
<!DOCTYPE svg PUBLIC "-//W3C//DTD SVG 1.1//EN" "http://www.w3.org/Graphics/SVG/1.1/DTD/svg11.dtd">
<svg version="1.1" id="Layer_1" xmlns="http://www.w3.org/2000/svg" xmlns:xlink="http://www.w3.org/1999/xlink" x="0px" y="0px"
	 viewBox="0 0 53.4 62.9" enable-background="new 0 0 53.4 62.9" xml:space="preserve">
<g>
	<g>
		<path fill="#DBD1C5" d="M50.7,18.2h-9.1l-0.5-3.4h-0.2c0,2.7-6.6,4.9-14.8,4.9c-7.6,0-13.8-1.9-14.6-4.4L11,18.8l-5.8-4
			c0,0-3.2-1.4-4.7,1.2C-0.9,18.7,1,20.9,1,20.9l8.5,8.4L6,55.1h0c0,0,0,0.1,0,0.1c0,4.2,9.2,7.6,20.5,7.6c11.3,0,20.5-3.4,20.5-7.6
			c0,0,0-0.1,0-0.1h0.1L46,47.5c6.3-4.7,7.4-17.1,7.4-17.1s0-6.5,0-9.5C53.4,17.9,50.7,18.2,50.7,18.2z M48.9,30.4
			c0,6.1-2.3,9.8-3.8,11.5l-2.9-19.5h6.7V30.4z"/>
		<path fill="#DBD1C5" d="M26.2,17.7c8.1,0,14.8-2.5,14.8-5.6c0-2.7-5.1-4.9-11.8-5.5l-1,1.8l0.1-1.8c0,0,0,0,0,0l0.3-4.3
			c0,0,0.3-2.3-2.4-2.3s-2.5,2-2.5,2l0.3,4.6c-7.1,0.4-12.5,2.7-12.5,5.5C11.4,15.2,18,17.7,26.2,17.7z"/>
	</g>
	<path fill="#E8E8EB" d="M14.4,22.4l-4,31.8c0,0,0,2.6,3.5,2.2l3-33.3C17,23.1,15.7,22.9,14.4,22.4z"/>
</g>
</svg>
