<?xml version="1.0" encoding="utf-8"?>
<!-- Generator: Adobe Illustrator 17.1.0, SVG Export Plug-In . SVG Version: 6.00 Build 0)  -->
<!DOCTYPE svg PUBLIC "-//W3C//DTD SVG 1.1//EN" "http://www.w3.org/Graphics/SVG/1.1/DTD/svg11.dtd">
<svg version="1.1" id="Isolation_Mode" xmlns="http://www.w3.org/2000/svg" xmlns:xlink="http://www.w3.org/1999/xlink" x="0px"
	 y="0px" viewBox="0 0 269.9 437.8" enable-background="new 0 0 269.9 437.8" xml:space="preserve">
<g>
	<path fill="#F6E0D0" d="M132.2,38.1c0-14.7-7.3-19.3-7.3-19.3l-6.9-4.2l-23.8,1.8L78.6,30.1l-4.4,19.4l8.2,19.6v21.7l26.4,0.6
		l2.1-13c0,0-2.9,0,2.9-0.1c9.6-0.1,9.8-8.4,9.8-8.4v-2.7c-5-0.3-6.8-5.2-6.8-5.2c4.9,2.5,9.7,1.1,9.7,1.1v-6.2h2.8c0,0,3,0.2,3-4.7
		C132.2,49.3,132.2,44.8,132.2,38.1z"/>
	<path fill="#050707" d="M64.7,233.9c0,0,29.3-6.3,63,5c0,0,3.9,10.7,4.1,36.3c0.2,25.6-2.3,150.3-2.3,150.3h-10.4l-17.8-157.3
		l-6.7,0l-8.4,157.3h-9.5c0,0-14-132.1-15.5-154c-1.4-22,2.9-36.5,2.9-36.5S63.8,234.9,64.7,233.9z"/>
	<path fill="#F6E0D0" d="M224.1,162.9c0,0,4.9-2.8,6.7-7.5c1.8-4.7,3.6-5.9,7.8-7.5l8.3,29.3c0,0-6.9,3.5-11.4,1
		c-4.5-2.6-8.1,0.9-8.1,0.9L224.1,162.9z"/>
	<path fill="#9FB560" d="M82.4,79.3v12H61.1c0,0-17.6-1.1-21.4,16.4c-3.8,17.6-16.4,144.9-16.4,144.9h19.1l17-105.7l4.4,88l64.5,5
		c0,0-0.4-60.2-3.4-83.9c0,0,12.1,29.7,45.7,35.8c33.6,6.2,59.1-13.2,59.1-13.2l-5.2-16.1c0,0-31,16.3-55.8,6.8
		c-24.8-9.5-34.2-54.4-34.2-54.4s-5.1-18.7-25.8-18.7l1-9.8L82.4,79.3z"/>
	<g>
		<defs>
			<polyline id="SVGID_1_" points="64,226.7 128.8,230.4 128.9,240.4 64.4,235.4 64,227.8 			"/>
		</defs>
		<clipPath id="SVGID_2_">
			<use xlink:href="#SVGID_1_"  overflow="visible"/>
		</clipPath>
		<g clip-path="url(#SVGID_2_)">
			<rect x="69.3" y="226.7" fill="#678537" width="2.8" height="10.9"/>
			<rect x="77.7" y="227.1" fill="#678537" width="2.8" height="10.9"/>
			<rect x="86.1" y="227.5" fill="#678537" width="2.8" height="10.9"/>
			<rect x="94.5" y="227.8" fill="#678537" width="2.8" height="10.9"/>
			<rect x="102.9" y="228.2" fill="#678537" width="2.8" height="10.9"/>
			<rect x="111.3" y="228.6" fill="#678537" width="2.8" height="10.9"/>
			<rect x="119.7" y="229" fill="#678537" width="2.8" height="10.9"/>
		</g>
	</g>
	<g>
		<path fill="#5B843C" d="M54.1,137.7c-0.6,4-7.1,8.5-7.1,8.5s-5-6.1-4.4-10.2c0.6-4,3.3-4.9,6.5-4.5
			C52.2,132.1,54.6,133.7,54.1,137.7z"/>
		<rect x="43" y="129" transform="matrix(0.99 0.1412 -0.1412 0.99 19.2657 -5.5652)" fill="#5B843C" width="11.7" height="8"/>
	</g>
	<path fill="#FFFFFF" d="M259.9,188.7c0,0-5-20.8,1.9-36.4c6.9-15.6,6.3-33.1,6.3-33.1h-17.1h-0.8h-17.1c0,0-0.6,17.5,6.3,33.1
		c6.9,15.6,1.9,36.4,1.9,36.4s-2.3,0.7-2.1,3.8c0.2,3.1,5.2,2.5,5.2,2.5h5.9h0.8h5.9c0,0,5,0.6,5.2-2.5
		C262.1,189.4,259.9,188.7,259.9,188.7z"/>
	<path fill="#D86D2E" d="M239.1,131.5h22.3c0,0,0.2,10.6-3.7,20.7c-4.1,10.4-2.5,29.7-1.1,35.7H245c0,0,1.8-10.2,0.8-23.2
		C244.8,152.4,239.1,144.7,239.1,131.5z"/>
	<circle fill="#D86D2E" cx="36.6" cy="297.9" r="24.7"/>
	<path fill="#F6E0D0" d="M250.4,145.1l12.2-3.8c0,0,4.3-1.2,4.5,2.2l2.8,22.1c0,0-7.8,5.3-13.3,5c0,0-4.2,0.1-3.6-4.4
		c0,0,1.1-1.4,2.6-2.3c0,0-3.6,1.6-4.5-1.8c-0.9-3.3,1.8-4.4,1.8-4.4s-2.9,0.7-3.7-2.7c-0.5-2.3,2-3.8,2-3.8s-1.1-0.3-1.9-1.2
		C248.2,149,247.5,146.2,250.4,145.1z"/>
	<ellipse fill="#231F20" cx="26.6" cy="282.4" rx="4.3" ry="2.9"/>
	<ellipse fill="#231F20" cx="38.9" cy="279.6" rx="4.3" ry="2.9"/>
	<path fill="#F6E0D0" d="M23.3,252.6l-21.2,4.7c0,0-3.1,4.4,3.6,4.5l9.3,0.4L0,272.4c0,0-0.4,5.5,4.4,3.8c3.9-1.3,15-8.9,15-8.9
		s-3.2,10.1,6.5,14.8c0,0,4.9,0.6,4.9-2.3c0-3-2.9-1.7-4.4-5.7c-1.7-4.3,0.9-7.1,4.4-7.9c4.3-1,8.5,1.7,7.4,5.4
		c-0.9,3.1-1.8,6.3,0.1,7.2c1.8,0.8,6.3-2.5,6.3-9.9c0-7.4-3.5-9.3-2.2-16.2H23.3z"/>
	<path fill="#D86D2E" d="M76.8,425.5h13c0,0,19.5-1.4,20.3,11.9H76.8V425.5z"/>
	<path fill="#D86D2E" d="M118.8,425.5h13.5c0,0,20.3-1.4,21.1,12.3h-34.5V425.5z"/>
	<path fill="#F6E0D0" d="M232.7,151.6l10.8-13.7c0,0,4.8,7.2-0.6,13.7c-4.4,5.3-3.1,10.2-2.5,13.7l-2.8-1.6L232.7,151.6z"/>
	<path fill="#A87C4F" d="M114.8,0C87.9,0,66,21.3,66,47.7v28.5h9.7h10.4h1V47.7c0-14.9,12.4-27,27.6-27c5.4,0,10.5,1.5,14.8,4.2
		l15.2-14.7C136.6,3.8,126.1,0,114.8,0z"/>
	<path fill="#F6E0D0" d="M87.9,58.4c0,0-6.1,1.4-6.2-1.7c-0.2-3,0-11.8,0-11.8s0.3-5.1,6.2-2.9C93.8,44.4,87.9,58.4,87.9,58.4z"/>
	<g>
		<polygon fill="#D86D2E" points="248.3,150.7 260.2,147.9 250.1,152.2 		"/>
		<polygon fill="#D86D2E" points="248.9,157.5 260.8,154.7 250.7,159 		"/>
		<polygon fill="#D86D2E" points="250.6,164.3 261.6,161.7 252.2,165.7 		"/>
	</g>
	<path fill="#1C1500" d="M131.4,37.6c0,0-1.6,12.3-10.5,12.3c-15.6,0-20.1-12.7-20.1-12.7s9.1-5.5,23.1-3.7
		C131.1,34.4,131.4,37.6,131.4,37.6z"/>
	<path fill="#8AAEC0" d="M120.9,47.8c-10.6,0-15.5-6.4-17.3-9.5c2.5-1.1,7.6-3,14.3-3c1.9,0,3.7,0.1,5.6,0.4
		c1.7,0.3,2.3,0.3,3.2,0.6c1.9,0.7,2.3,3.2,1.8,4.6C127.3,44,125,47.8,120.9,47.8z"/>
	<path fill="none" stroke="#1C1500" stroke-width="1.9171" stroke-linecap="round" stroke-miterlimit="10" d="M102.3,37.3H87.1
		c0,0-6,0-6,5.3"/>
	
		<line fill="none" stroke="#1C1500" stroke-width="1.9171" stroke-linecap="round" stroke-miterlimit="10" x1="130" y1="38.1" x2="134.1" y2="38.1"/>
</g>
</svg>
