<?xml version="1.0" encoding="utf-8"?>
<!-- Generator: Adobe Illustrator 17.1.0, SVG Export Plug-In . SVG Version: 6.00 Build 0)  -->
<!DOCTYPE svg PUBLIC "-//W3C//DTD SVG 1.1//EN" "http://www.w3.org/Graphics/SVG/1.1/DTD/svg11.dtd">
<svg version="1.1" id="Isolation_Mode" xmlns="http://www.w3.org/2000/svg" xmlns:xlink="http://www.w3.org/1999/xlink" x="0px"
	 y="0px" viewBox="0 0 216.3 321.7" enable-background="new 0 0 216.3 321.7" xml:space="preserve">
<g>
	<path fill="#F6E0D0" d="M188.6,65.9c0,0,22.5,2.1,12.3-13.8L185.5,28c0,0-9.7-4.6-10-11.7l4.2,3.8l-5.2-14.4c0,0,10,3,15.2,15.8
		c1.5,3.6,1.5,4.1,1.5,4.1l20,24.8c0,0,20.5,26.1-20.6,29.1L188.6,65.9z"/>
	<path fill="#F6E0D0" d="M97.6,63c0,0-72.6,31.8-97.6,56.9c0,0,9.4,1.7,20.7-4.9c0,0-4.5,4.1-4.7,5.9c0,0,6.8-0.3,16.4-13.8
		c0,0,46.3-24,72.4-31.3L97.6,63z"/>
	<path fill="#BF628B" d="M143.2,40.1c0,0,5,11.5-12.5,13.2l-33.4,7.8c0,0,1.8,13,7.2,16.6c0,0,11.9,0.6,13.4,12.9
		c1.4,12.4-4,51.2-4,51.2s40.1,5.1,52.4,13.5l8.7-64.7c0,0,4-10.2,15.5-11.2c0,0,1.4-11.5,0-15.1l-24.2-11c0,0-10.5-2.7-10.1-13.2
		H143.2z"/>
	<path fill="#68473E" d="M125.3,43h37c0,0,16.3-42.6-7.6-43C130.9-0.4,125.3,43,125.3,43z"/>
	<path fill="#776556" d="M113.9,141.9c0,0-1.8,13.9,3.8,47.1c5.6,33.2,13,107,13,107h9.3l6.6-115.5l14.4-29.2
		C161,151.2,133.8,142.9,113.9,141.9z"/>
	<path fill="#938375" d="M166.3,155.3c0,0-42.7,108-81.1,138.7l-10.2-9.7c0,0,45.8-67,55.7-107.9c0,0-14.9-7.6-16.6-15.6
		c-2-9.5-0.2-18.9-0.2-18.9S160.8,146.1,166.3,155.3z"/>
	<path fill="#231F20" d="M130.6,296c0,0,0.9,0.9,0,5.6c-0.9,4.7-1.9,10,5.2,10c7.1,0,7.1,0,7.1,0l10-10.4c0,0,1.4-6.7-4.7-7.1
		c0,0-4.1-0.1-6.7,2.9l-2-0.9l0,0H130.6z"/>
	<path fill="#231F20" d="M75.6,284.9c0,0-1.6,3-4.9,4.8c-3.3,1.8-6.9,5.1-3.9,10.6c3,5.5,15,21.4,15,21.4s8.7-3.2,5.3-11.6
		c-3.5-8.5-6-12.6-2-16L75.6,284.9z"/>
</g>
</svg>
