<?xml version="1.0" encoding="utf-8"?>
<!-- Generator: Adobe Illustrator 17.1.0, SVG Export Plug-In . SVG Version: 6.00 Build 0)  -->
<!DOCTYPE svg PUBLIC "-//W3C//DTD SVG 1.1//EN" "http://www.w3.org/Graphics/SVG/1.1/DTD/svg11.dtd">
<svg version="1.1" id="Isolation_Mode" xmlns="http://www.w3.org/2000/svg" xmlns:xlink="http://www.w3.org/1999/xlink" x="0px"
	 y="0px" viewBox="0 0 636.7 198.1" enable-background="new 0 0 636.7 198.1" xml:space="preserve">
<rect x="0" y="127.2" fill="#433730" width="632.6" height="70.9"/>
<polygon fill="#DAD0C4" points="253.4,132.6 253.4,127.2 249.9,127.2 249.9,132.6 200.9,132.6 200.9,127.2 197.4,127.2 197.4,132.6 
	184.4,132.6 184.4,145.3 266.7,145.3 266.7,132.6 "/>
<polygon fill="#DAD0C4" points="363.4,132.6 363.4,127.2 359.9,127.2 359.9,132.6 310.9,132.6 310.9,127.2 307.4,127.2 307.4,132.6 
	294.4,132.6 294.4,145.3 376.6,145.3 376.6,132.6 "/>
<polygon fill="#DAD0C4" points="472.4,132.6 472.4,127.2 468.9,127.2 468.9,132.6 419.9,132.6 419.9,127.2 416.4,127.2 416.4,132.6 
	403.4,132.6 403.4,145.3 485.7,145.3 485.7,132.6 "/>
<g>
	<circle fill="#FFDF4C" cx="316.8" cy="45.4" r="6"/>
	<path fill="#433730" d="M301.4,43.3c0,0-5.8-24.4,14.4-24.6c20.2-0.2,15.2,24.6,15.2,24.6H301.4z"/>
	
		<line fill="none" stroke="#433730" stroke-width="2.8757" stroke-linecap="round" stroke-miterlimit="10" x1="315.9" y1="26.2" x2="315.9" y2="1.4"/>
	<ellipse fill="#433730" cx="316.1" cy="43.7" rx="14.8" ry="2.7"/>
	<circle fill="#FFDF4C" cx="240.5" cy="70.2" r="6"/>
	<path fill="#433730" d="M225.7,67.6c0,0-5.8-24.4,14.4-24.6c20.2-0.2,15.2,24.6,15.2,24.6H225.7z"/>
	
		<line fill="none" stroke="#433730" stroke-width="2.8757" stroke-linecap="round" stroke-miterlimit="10" x1="240.2" y1="50.4" x2="240.2" y2="1.9"/>
	<ellipse fill="#433730" cx="240.5" cy="67.6" rx="14.8" ry="2.7"/>
</g>
<ellipse transform="matrix(-0.97 -0.2432 0.2432 -0.97 1207.118 200.5629)" fill="#FFDF4C" cx="615.9" cy="25.8" rx="14.1" ry="10.8"/>
<ellipse transform="matrix(0.9196 0.3929 -0.3929 0.9196 51.3144 -163.0269)" fill="#FAAF40" cx="423.9" cy="43.8" rx="14.1" ry="10.8"/>
<rect x="375.9" y="14.3" fill="#433730" width="139.3" height="81.8"/>
<rect x="380.8" y="19.3" fill="#DAD0C4" width="129.5" height="72"/>
<polygon fill="#BE1E2D" points="384.7,43.8 384.7,86.3 426.6,86.3 507.1,41.6 507.1,22.3 "/>
<text transform="matrix(0.9741 -0.2262 0.2262 0.9741 410.3077 68.124)" fill="#DAD0C4" font-family="'OpenSans-Bold'" font-size="20.1832">Strike!</text>
<polygon fill="#A03658" points="507.1,41.6 479.6,86.3 426.6,86.3 "/>
<g>
	<path fill="#FFFFFF" d="M495.8,26.5c1.3-1.6,2.9-1.4,3.9-0.6c1.4,1,1.3,2.4,0.5,4c-0.6,1.3-2.5,4-3.7,6.9c-1.3,3.1-0.3,6.4-1.1,9.9
		c-1.3,6.1-7.9,11.2-7.9,11.2l-4.4-2c0,0,0.1-8.1,2.1-12c2-3.9,5.7-5.4,7.5-8.6C494.5,32.2,494.5,28.1,495.8,26.5z"/>
	<path fill="#AEE2FA" d="M494.1,31.7l0.8-1.4l-0.4,3.7l2.6-2.7l-0.5,3.5l2.2-2.3c0,0-2.2,3.9-2.5,5.1c0,0-1.3-1.3-3.8-1.7
		C492.5,35.8,493.6,33.8,494.1,31.7z"/>
</g>
<g>
	<path fill="#FFFFFF" d="M502.7,55.6c1.5-0.5,2.5,0.4,2.9,1.3c0.4,1.3-0.2,2.2-1.4,2.8c-1,0.6-3.4,1.5-5.5,2.8c-2.3,1.5-3,4-5.1,6
		c-3.6,3.4-10.2,3.8-10.2,3.8l-2-3.2c0,0,3.7-5.2,6.7-6.9c3-1.6,6.2-1,8.7-2.3C499.2,58.7,501.1,56.1,502.7,55.6z"/>
	<path fill="#AEE2FA" d="M499.2,58.2l1.2-0.6l-1.9,2.2l2.9-0.6l-1.9,2l2.4-0.5c0,0-3.2,1.5-3.9,2.2c0,0-0.3-1.4-1.7-2.8
		C496.3,60.2,497.9,59.4,499.2,58.2z"/>
</g>
<polygon fill="#A03658" points="384.7,43.8 384.7,22.3 507.1,22.3 "/>
<g>
	<path fill="#FFFFFF" d="M479.5,25.3c0.5-1,1.4-1.2,2-0.9c0.9,0.3,1,1.1,0.9,2.1c-0.1,0.8-0.8,2.5-1,4.3c-0.3,1.9,0.7,3.5,0.8,5.5
		c0.2,3.5-2.7,7.2-2.7,7.2l-2.6-0.4c0,0-1.1-4.4-0.6-6.8c0.5-2.4,2.3-3.8,2.8-5.7C479.6,28.6,479,26.4,479.5,25.3z"/>
	<path fill="#AEE2FA" d="M479.3,28.4l0.2-0.9l0.3,2.1l1-1.9l0.2,1.9l0.8-1.5c0,0-0.7,2.4-0.6,3.1c0,0-0.9-0.5-2.3-0.4
		C479,30.8,479.3,29.6,479.3,28.4z"/>
</g>
<g>
	<defs>
		<rect id="SVGID_1_" x="384.7" y="22.3" width="122.4" height="64"/>
	</defs>
	<clipPath id="SVGID_2_">
		<use xlink:href="#SVGID_1_"  overflow="visible"/>
	</clipPath>
	<g clip-path="url(#SVGID_2_)">
		<path fill="#FFFFFF" d="M400.6,14.8c3.1-3.8,7-3.5,9.6-1.5c3.3,2.4,3.1,5.9,1.3,9.7c-1.5,3.2-6.1,9.7-9.1,16.8
			c-3.2,7.6-0.8,15.5-2.7,24.1c-3.2,14.7-19.3,27.4-19.3,27.4l-10.6-4.8c0,0,0.2-19.7,5.1-29.1c4.9-9.4,13.9-13.3,18.2-20.9
			C397.4,28.8,397.3,18.8,400.6,14.8z"/>
		<path fill="#AEE2FA" d="M396.4,27.5l2-3.5l-1,9.1l6.3-6.7l-1.2,8.4l5.2-5.5c0,0-5.5,9.5-6.2,12.4c0,0-3.2-3.2-9.2-4.2
			C392.4,37.5,395.1,32.7,396.4,27.5z"/>
	</g>
</g>
<ellipse transform="matrix(-0.8666 0.4991 -0.4991 -0.8666 267.972 -50.1548)" fill="#FFDF4C" cx="140.7" cy="10.7" rx="14.1" ry="10.8"/>
</svg>
