<?xml version="1.0" encoding="utf-8"?>
<!-- Generator: Adobe Illustrator 17.1.0, SVG Export Plug-In . SVG Version: 6.00 Build 0)  -->
<!DOCTYPE svg PUBLIC "-//W3C//DTD SVG 1.1//EN" "http://www.w3.org/Graphics/SVG/1.1/DTD/svg11.dtd">
<svg version="1.1" id="Isolation_Mode" xmlns="http://www.w3.org/2000/svg" xmlns:xlink="http://www.w3.org/1999/xlink" x="0px"
	 y="0px" viewBox="0 0 184.3 198" enable-background="new 0 0 184.3 198" xml:space="preserve">
<g>
	<g>
		<rect x="0" y="54.3" fill="#492F28" width="6.4" height="10.1"/>
		<rect x="177.9" y="52.7" fill="#492F28" width="6.4" height="10.4"/>
		<ellipse fill="#492F28" cx="92.2" cy="63.6" rx="92.2" ry="29.9"/>
		<ellipse fill="#68473E" cx="92.2" cy="53.4" rx="92.2" ry="29.9"/>
	</g>
	<ellipse fill="#F1F1F2" cx="118" cy="56.1" rx="36.3" ry="12.9"/>
	<ellipse fill="#D0D2D3" cx="118" cy="55.6" rx="24.6" ry="7.1"/>
	<g>
		<path fill="#938375" d="M138.7,53.4c0,1.2-1,2.2-2.2,2.2l-35.3-0.1c-1.2,0-2.2-1-2.2-2.2l0,0c0-1.2,1-2.2,2.2-2.2l35.3,0.1
			C137.7,51.2,138.7,52.2,138.7,53.4L138.7,53.4z"/>
		<path fill="#938375" d="M138.8,39.2c0,1.2-1,2.2-2.2,2.2l-35.3-0.1c-1.2,0-2.2-1-2.2-2.2l0,0c0-1.2,1-2.2,2.2-2.2l35.3,0.1
			C137.8,37,138.8,37.9,138.8,39.2L138.8,39.2z"/>
		<path fill="#938375" d="M136.5,46.3c0,1.2-0.9,2.2-1.9,2.2l-31.3-0.1c-1.1,0-1.9-1-1.9-2.2l0,0c0-1.2,0.9-2.2,1.9-2.2l31.3,0.1
			C135.7,44.1,136.5,45.1,136.5,46.3L136.5,46.3z"/>
		<path fill="#BBD531" d="M103.5,49.9c0,0-1.9-1.5-3.8-0.9c-2.9,0.8-2.7-1.8-1.1-2.5c1.9-0.8,3.1,1.1,4.7,0.7
			c1.6-0.3,2.5-0.1,3.3,0.4c0.8,0.4,1.5,1,2.9,0.2c1.3-0.7,3.3-0.7,4.9,0.3c0.9,0.5,2.7,0.7,3.7,0c1.8-1.3,3.4-1.2,4.5-0.4
			c0.8,0.6,2.2,1.1,3.6-0.1c1.9-1.7,3.1-0.7,4.5,0c0.7,0.3,3,0.2,3.8,0c0.8-0.1,4-1.5,4.9,0.2c0.7,1.5-1.3,2.6-2.7,2.1
			c-1.3-0.5-1.4,0.5-1.4,0.5l-31.3-0.1L103.5,49.9z"/>
		<path fill="#BBD531" d="M104,42.7c0,0-1.9-1.5-3.8-0.9c-2.9,0.8-2.7-1.8-1.1-2.5c1.9-0.8,3.1,1.1,4.7,0.7c1.6-0.3,2.5-0.1,3.3,0.4
			c0.8,0.4,1.5,1,2.9,0.2c1.3-0.7,3.3-0.7,4.9,0.3c0.9,0.5,2.7,0.7,3.7,0c1.8-1.3,3.4-1.2,4.5-0.4c0.8,0.6,2.2,1.1,3.6-0.1
			c1.9-1.7,3.1-0.7,4.5,0c0.7,0.3,3,0.2,3.8,0c0.8-0.1,4-1.5,4.9,0.2c0.7,1.5-1.3,2.6-2.7,2.1c-1.3-0.5-1.4,0.5-1.4,0.5L104.3,43
			L104,42.7z"/>
		<path fill="#EE9EC0" d="M135.8,50.3c0,0.6-0.5,1-1,1l-31.6-0.1c-0.6,0-1-0.5-1-1l0,0c0-0.6,0.5-1,1-1l31.7,0.1
			C135.3,49.3,135.8,49.7,135.8,50.3L135.8,50.3z"/>
		<path fill="#EE9EC0" d="M135.8,43.5c0,0.6-0.5,1-1,1l-31.6-0.1c-0.6,0-1-0.5-1-1l0,0c0-0.6,0.5-1,1-1l31.7,0.1
			C135.4,42.5,135.8,42.9,135.8,43.5L135.8,43.5z"/>
	</g>
	<circle fill="#938375" cx="92.3" cy="52.2" r="1.1"/>
	<circle fill="#938375" cx="97.9" cy="60.1" r="1.1"/>
	<circle fill="#938375" cx="95.7" cy="53.4" r="1.1"/>
	<circle fill="#938375" cx="118.4" cy="57.9" r="1.1"/>
	<circle fill="#938375" cx="122" cy="59" r="1.1"/>
	<circle fill="#938375" cx="142.5" cy="55.6" r="1.1"/>
	<circle fill="#938375" cx="134.7" cy="60.1" r="1.1"/>
	<path fill="#FFFFFF" d="M56.6,54.6c0,0-3.9-16.3,1.5-28.6c5.4-12.3,4.9-26,4.9-26H49.5h-0.6H35.4c0,0-0.5,13.7,4.9,26
		c5.4,12.3,1.5,28.6,1.5,28.6s-1.8,0.5-1.6,3c0.2,2.5,4.1,2,4.1,2h4.6h0.6h4.6c0,0,3.9,0.5,4.1-2C58.4,55.1,56.6,54.6,56.6,54.6z"/>
	<path fill="#F9BE23" d="M40.3,9.7h17.5c0,0,0.2,8.3-2.9,16.3c-3.2,8.2-2,23.3-0.9,28h-9c0,0,1.4-8,0.6-18.2
		C44.8,26.1,40.3,20.1,40.3,9.7z"/>
	<ellipse fill="#C1B9AF" cx="89.4" cy="180.3" rx="60.5" ry="17.7"/>
	<g>
		<path fill="#492F28" d="M112.4,178.5c0,4.4-10.2,7.9-22.8,7.9c-12.6,0-22.8-3.6-22.8-7.9c0-4.4,10.2-7.9,22.8-7.9
			C102.2,170.5,112.4,174.1,112.4,178.5z"/>
		<path fill="#492F28" d="M66.7,178.4v-15.9c0,0,15.5-1.8,14.9-26.2V86.9h8v91.5H66.7z"/>
		<path fill="#492F28" d="M112.3,178.4v-15.9c0,0-15.5-1.8-14.9-26.2V86.9h-8v91.5H112.3z"/>
	</g>
</g>
</svg>
