<?xml version="1.0" encoding="utf-8"?>
<!-- Generator: Adobe Illustrator 17.1.0, SVG Export Plug-In . SVG Version: 6.00 Build 0)  -->
<!DOCTYPE svg PUBLIC "-//W3C//DTD SVG 1.1//EN" "http://www.w3.org/Graphics/SVG/1.1/DTD/svg11.dtd">
<svg version="1.1" id="Isolation_Mode" xmlns="http://www.w3.org/2000/svg" xmlns:xlink="http://www.w3.org/1999/xlink" x="0px"
	 y="0px" viewBox="0 0 291.1 48.3" enable-background="new 0 0 291.1 48.3" xml:space="preserve">
<g>
	<g>
		<path fill="#7E1D2D" d="M141.2,3.7c0.6-2.3,2.4-2.9,3.8-2.5c1.9,0.4,2.5,1.9,2.5,3.9c0,1.7-0.7,5.4-0.7,9.1
			c0.1,3.9,2.7,6.9,3.6,11c1.5,7-3,15.7-3,15.7h-5.6c0,0-3.8-8.6-3.5-13.6c0.3-5.1,3.4-8.5,3.8-12.7C142.5,10.4,140.5,6.1,141.2,3.7
			z"/>
		<path fill="#BBBDBF" d="M141.9,10l0.2-1.9l1.3,4.1l1.4-4.1l1.1,3.9l1.2-3.4c0,0-0.5,5.2-0.2,6.6c0,0-2-0.7-4.8,0
			C142.1,15.2,142.3,12.5,141.9,10z"/>
	</g>
	<g>
		<path fill="#7E1D2D" d="M160.4,3.7c0.6-2.3,2.4-2.9,3.8-2.5c1.9,0.4,2.5,1.9,2.5,3.9c0,1.7-0.7,5.4-0.7,9.1
			c0.1,3.9,2.7,6.9,3.6,11c1.5,7-3,15.7-3,15.7H161c0,0-3.8-8.6-3.5-13.6c0.3-5.1,3.4-8.5,3.8-12.7C161.7,10.4,159.7,6.1,160.4,3.7z
			"/>
		<path fill="#BBBDBF" d="M161,10l0.2-1.9l1.3,4.1l1.4-4.1l1.1,3.9l1.2-3.4c0,0-0.5,5.2-0.2,6.6c0,0-2-0.7-4.8,0
			C161.3,15.2,161.5,12.5,161,10z"/>
	</g>
	<g>
		<path fill="#7E1D2D" d="M122.2,3.7c0.6-2.3,2.4-2.9,3.8-2.5c1.9,0.4,2.5,1.9,2.5,3.9c0,1.7-0.7,5.4-0.7,9.1
			c0.1,3.9,2.7,6.9,3.6,11c1.5,7-3,15.7-3,15.7h-5.6c0,0-3.8-8.6-3.5-13.6c0.3-5.1,3.4-8.5,3.8-12.7C123.5,10.4,121.6,6.1,122.2,3.7
			z"/>
		<path fill="#BBBDBF" d="M122.9,10l0.2-1.9l1.3,4.1l1.4-4.1L127,12l1.2-3.4c0,0-0.5,5.2-0.2,6.6c0,0-2-0.7-4.8,0
			C123.1,15.2,123.3,12.5,122.9,10z"/>
	</g>
	<g>
		<path fill="#BE1E2D" d="M150.3,2.5c0.7-2.8,2.9-3.5,4.7-3.1c2.3,0.5,3,2.4,3,4.8c0,2-0.9,6.6-0.8,11c0.1,4.8,3.3,8.3,4.3,13.4
			c1.8,8.5-3.6,19-3.6,19h-6.8c0,0-4.6-10.4-4.2-16.6c0.3-6.1,4.2-10.3,4.6-15.4C151.9,10.6,149.5,5.4,150.3,2.5z"/>
		<path fill="#FFFFFF" d="M151.1,10.2l0.2-2.3l1.6,5l1.7-5l1.4,4.7l1.4-4.2c0,0-0.6,6.3-0.3,8c0,0-2.5-0.9-5.9,0
			C151.4,16.5,151.7,13.2,151.1,10.2z"/>
	</g>
	<g>
		<path fill="#BE1E2D" d="M169.8,2.5c0.7-2.8,2.9-3.5,4.7-3.1c2.3,0.5,3,2.4,3,4.8c0,2-0.9,6.6-0.8,11c0.1,4.8,3.3,8.3,4.3,13.4
			c1.8,8.5-3.6,19-3.6,19h-6.8c0,0-4.6-10.4-4.2-16.6c0.3-6.1,4.2-10.3,4.6-15.4C171.4,10.6,169,5.4,169.8,2.5z"/>
		<path fill="#FFFFFF" d="M170.6,10.2l0.2-2.3l1.6,5l1.7-5l1.4,4.7l1.4-4.2c0,0-0.6,6.3-0.3,8c0,0-2.5-0.9-5.9,0
			C170.9,16.5,171.2,13.2,170.6,10.2z"/>
	</g>
	<g>
		<path fill="#BE1E2D" d="M110.6,2.8c0.7-2.8,2.9-3.5,4.7-3.1c2.3,0.5,3,2.4,3,4.8c0,2-0.9,6.6-0.8,11c0.1,4.8,3.3,8.3,4.3,13.4
			c1.8,8.5-3.6,19-3.6,19h-6.8c0,0-4.6-10.4-4.2-16.6c0.3-6.1,4.2-10.3,4.6-15.4C112.2,11,109.8,5.7,110.6,2.8z"/>
		<path fill="#FFFFFF" d="M111.4,10.5l0.2-2.3l1.6,5l1.7-5l1.4,4.7l1.4-4.2c0,0-0.6,6.3-0.3,8c0,0-2.5-0.9-5.9,0
			C111.7,16.8,112,13.5,111.4,10.5z"/>
	</g>
	<g>
		<path fill="#BE1E2D" d="M130.9,2.5c0.7-2.8,2.9-3.5,4.7-3.1c2.3,0.5,3,2.4,3,4.8c0,2-0.9,6.6-0.8,11c0.1,4.8,3.3,8.3,4.3,13.4
			c1.8,8.5-3.6,19-3.6,19h-6.8c0,0-4.6-10.4-4.2-16.6c0.3-6.1,4.2-10.3,4.6-15.4C132.5,10.6,130.1,5.4,130.9,2.5z"/>
		<path fill="#FFFFFF" d="M131.7,10.2l0.2-2.3l1.6,5l1.7-5l1.4,4.7l1.4-4.2c0,0-0.6,6.3-0.3,8c0,0-2.5-0.9-5.9,0
			C132,16.5,132.3,13.2,131.7,10.2z"/>
	</g>
</g>
<g>
	<g>
		<path fill="#C5ABA2" d="M270.2,5.2c0.6-2.3,2.4-2.9,3.8-2.5c1.9,0.4,2.5,1.9,2.5,3.9c0,1.7-0.7,5.4-0.7,9.1
			c0.1,3.9,2.7,6.9,3.6,11c1.5,7-3,15.7-3,15.7h-5.6c0,0-3.8-8.6-3.5-13.6c0.3-5.1,3.4-8.5,3.8-12.7C271.5,11.9,269.5,7.5,270.2,5.2
			z"/>
		<path fill="#BE1E2D" d="M270.9,11.5l0.2-1.9l1.3,4.1l1.4-4.1l1.1,3.9l1.2-3.4c0,0-0.5,5.2-0.2,6.6c0,0-2-0.7-4.8,0
			C271.1,16.6,271.3,14,270.9,11.5z"/>
	</g>
	<g>
		<path fill="#FFFFFF" d="M279.6,4.3c0.7-2.8,2.9-3.5,4.7-3.1c2.3,0.5,3,2.4,3,4.8c0,2-0.9,6.6-0.8,11c0.1,4.8,3.3,8.3,4.3,13.4
			c1.8,8.5-3.6,19-3.6,19h-6.8c0,0-4.6-10.4-4.2-16.6c0.3-6.1,4.2-10.3,4.6-15.4C281.2,12.4,278.8,7.2,279.6,4.3z"/>
		<path fill="#BE1E2D" d="M280.4,12l0.2-2.3l1.6,5l1.7-5l1.4,4.7l1.4-4.2c0,0-0.6,6.3-0.3,8c0,0-2.5-0.9-5.9,0
			C280.7,18.2,281,15,280.4,12z"/>
	</g>
	<g>
		<path fill="#C5ABA2" d="M250.5,5.2c0.6-2.3,2.4-2.9,3.8-2.5c1.9,0.4,2.5,1.9,2.5,3.9c0,1.7-0.7,5.4-0.7,9.1
			c0.1,3.9,2.7,6.9,3.6,11c1.5,7-3,15.7-3,15.7h-5.6c0,0-3.8-8.6-3.5-13.6c0.3-5.1,3.4-8.5,3.8-12.7C251.9,11.9,249.9,7.5,250.5,5.2
			z"/>
		<path fill="#BE1E2D" d="M251.2,11.5l0.2-1.9l1.3,4.1l1.4-4.1l1.1,3.9l1.2-3.4c0,0-0.5,5.2-0.2,6.6c0,0-2-0.7-4.8,0
			C251.4,16.6,251.7,14,251.2,11.5z"/>
	</g>
	<g>
		<path fill="#FFFFFF" d="M260.1,4.3c0.7-2.8,2.9-3.5,4.7-3.1c2.3,0.5,3,2.4,3,4.8c0,2-0.9,6.6-0.8,11c0.1,4.8,3.3,8.3,4.3,13.4
			c1.8,8.5-3.6,19-3.6,19h-6.8c0,0-4.6-10.4-4.2-16.6c0.3-6.1,4.2-10.3,4.6-15.4C261.7,12.4,259.3,7.2,260.1,4.3z"/>
		<path fill="#BE1E2D" d="M260.9,12l0.2-2.3l1.6,5l1.7-5l1.4,4.7l1.4-4.2c0,0-0.6,6.3-0.3,8c0,0-2.5-0.9-5.9,0
			C261.2,18.2,261.5,15,260.9,12z"/>
	</g>
	<g>
		<path fill="#C5ABA2" d="M230.9,5.2c0.6-2.3,2.4-2.9,3.8-2.5c1.9,0.4,2.5,1.9,2.5,3.9c0,1.7-0.7,5.4-0.7,9.1
			c0.1,3.9,2.7,6.9,3.6,11c1.5,7-3,15.7-3,15.7h-5.6c0,0-3.8-8.6-3.5-13.6c0.3-5.1,3.4-8.5,3.8-12.7C232.2,11.9,230.2,7.5,230.9,5.2
			z"/>
		<path fill="#BE1E2D" d="M231.6,11.5l0.2-1.9l1.3,4.1l1.4-4.1l1.1,3.9l1.2-3.4c0,0-0.5,5.2-0.2,6.6c0,0-2-0.7-4.8,0
			C231.8,16.6,232,14,231.6,11.5z"/>
	</g>
	<g>
		<path fill="#FFFFFF" d="M240.6,4.3c0.7-2.8,2.9-3.5,4.7-3.1c2.3,0.5,3,2.4,3,4.8c0,2-0.9,6.6-0.8,11c0.1,4.8,3.3,8.3,4.3,13.4
			c1.8,8.5-3.6,19-3.6,19h-6.8c0,0-4.6-10.4-4.2-16.6c0.3-6.1,4.2-10.3,4.6-15.4C242.2,12.4,239.8,7.2,240.6,4.3z"/>
		<path fill="#BE1E2D" d="M241.4,12l0.2-2.3l1.6,5l1.7-5l1.4,4.7l1.4-4.2c0,0-0.6,6.3-0.3,8c0,0-2.5-0.9-5.9,0
			C241.7,18.2,242,15,241.4,12z"/>
	</g>
	<g>
		<path fill="#FFFFFF" d="M221.1,4.3c0.7-2.8,2.9-3.5,4.7-3.1c2.3,0.5,3,2.4,3,4.8c0,2-0.9,6.6-0.8,11c0.1,4.8,3.3,8.3,4.3,13.4
			c1.8,8.5-3.6,19-3.6,19h-6.8c0,0-4.6-10.4-4.2-16.6c0.3-6.1,4.2-10.3,4.6-15.4C222.7,12.4,220.3,7.2,221.1,4.3z"/>
		<path fill="#BE1E2D" d="M221.9,12l0.2-2.3l1.6,5l1.7-5l1.4,4.7l1.4-4.2c0,0-0.6,6.3-0.3,8c0,0-2.5-0.9-5.9,0
			C222.2,18.2,222.5,15,221.9,12z"/>
	</g>
</g>
<g>
	<g>
		<path fill="#C5ABA2" d="M52.5,4.1c0.6-2.3,2.4-2.9,3.8-2.5c1.9,0.4,2.5,1.9,2.5,3.9c0,1.7-0.7,5.4-0.7,9.1c0.1,3.9,2.7,6.9,3.6,11
			c1.5,7-3,15.7-3,15.7h-5.6c0,0-3.8-8.6-3.5-13.6c0.3-5.1,3.4-8.5,3.8-12.7C53.9,10.8,51.9,6.4,52.5,4.1z"/>
		<path fill="#BE1E2D" d="M53.2,10.4l0.2-1.9l1.3,4.1l1.4-4.1l1.1,3.9L58.5,9c0,0-0.5,5.2-0.2,6.6c0,0-2-0.7-4.8,0
			C53.4,15.5,53.7,12.9,53.2,10.4z"/>
	</g>
	<g>
		<path fill="#FFFFFF" d="M61.9,3.2c0.7-2.8,2.9-3.5,4.7-3.1c2.3,0.5,3,2.4,3,4.8c0,2-0.9,6.6-0.8,11c0.1,4.8,3.3,8.3,4.3,13.4
			c1.8,8.5-3.6,19-3.6,19h-6.8c0,0-4.6-10.4-4.2-16.6c0.3-6.1,4.2-10.3,4.6-15.4C63.6,11.3,61.2,6.1,61.9,3.2z"/>
		<path fill="#BE1E2D" d="M62.8,10.9L63,8.5l1.6,5l1.7-5l1.4,4.7l1.4-4.2c0,0-0.6,6.3-0.3,8c0,0-2.5-0.9-5.9,0
			C63,17.1,63.3,13.9,62.8,10.9z"/>
	</g>
	<g>
		<path fill="#C5ABA2" d="M32.9,4.1c0.6-2.3,2.4-2.9,3.8-2.5c1.9,0.4,2.5,1.9,2.5,3.9c0,1.7-0.7,5.4-0.7,9.1c0.1,3.9,2.7,6.9,3.6,11
			c1.5,7-3,15.7-3,15.7h-5.6c0,0-3.8-8.6-3.5-13.6c0.3-5.1,3.4-8.5,3.8-12.7C34.2,10.8,32.2,6.4,32.9,4.1z"/>
		<path fill="#BE1E2D" d="M33.6,10.4l0.2-1.9l1.3,4.1l1.4-4.1l1.1,3.9L38.8,9c0,0-0.5,5.2-0.2,6.6c0,0-2-0.7-4.8,0
			C33.8,15.5,34,12.9,33.6,10.4z"/>
	</g>
	<g>
		<path fill="#FFFFFF" d="M42.4,3.2c0.7-2.8,2.9-3.5,4.7-3.1c2.3,0.5,3,2.4,3,4.8c0,2-0.9,6.6-0.8,11c0.1,4.8,3.3,8.3,4.3,13.4
			c1.8,8.5-3.6,19-3.6,19h-6.8c0,0-4.6-10.4-4.2-16.6c0.3-6.1,4.2-10.3,4.6-15.4C44.1,11.3,41.7,6.1,42.4,3.2z"/>
		<path fill="#BE1E2D" d="M43.3,10.9l0.2-2.3l1.6,5l1.7-5l1.4,4.7l1.4-4.2c0,0-0.6,6.3-0.3,8c0,0-2.5-0.9-5.9,0
			C43.5,17.1,43.8,13.9,43.3,10.9z"/>
	</g>
	<g>
		<path fill="#C5ABA2" d="M13.2,4.1c0.6-2.3,2.4-2.9,3.8-2.5c1.9,0.4,2.5,1.9,2.5,3.9c0,1.7-0.7,5.4-0.7,9.1c0.1,3.9,2.7,6.9,3.6,11
			c1.5,7-3,15.7-3,15.7h-5.6c0,0-3.8-8.6-3.5-13.6c0.3-5.1,3.4-8.5,3.8-12.7C14.6,10.8,12.6,6.4,13.2,4.1z"/>
		<path fill="#BE1E2D" d="M13.9,10.4l0.2-1.9l1.3,4.1l1.4-4.1l1.1,3.9L19.2,9c0,0-0.5,5.2-0.2,6.6c0,0-2-0.7-4.8,0
			C14.1,15.5,14.4,12.9,13.9,10.4z"/>
	</g>
	<g>
		<path fill="#FFFFFF" d="M22.9,3.2c0.7-2.8,2.9-3.5,4.7-3.1c2.3,0.5,3,2.4,3,4.8c0,2-0.9,6.6-0.8,11c0.1,4.8,3.3,8.3,4.3,13.4
			c1.8,8.5-3.6,19-3.6,19h-6.8c0,0-4.6-10.4-4.2-16.6c0.3-6.1,4.2-10.3,4.6-15.4C24.6,11.3,22.2,6.1,22.9,3.2z"/>
		<path fill="#BE1E2D" d="M23.8,10.9L24,8.5l1.6,5l1.7-5l1.4,4.7l1.4-4.2c0,0-0.6,6.3-0.3,8c0,0-2.5-0.9-5.9,0
			C24,17.1,24.3,13.9,23.8,10.9z"/>
	</g>
	<g>
		<path fill="#FFFFFF" d="M3.5,3.2c0.7-2.8,2.9-3.5,4.7-3.1c2.3,0.5,3,2.4,3,4.8c0,2-0.9,6.6-0.8,11c0.1,4.8,3.3,8.3,4.3,13.4
			c1.8,8.5-3.6,19-3.6,19H4.2c0,0-4.6-10.4-4.2-16.6c0.3-6.1,4.2-10.3,4.6-15.4C5.1,11.3,2.7,6.1,3.5,3.2z"/>
		<path fill="#BE1E2D" d="M4.3,10.9l0.2-2.3l1.6,5l1.7-5l1.4,4.7l1.4-4.2c0,0-0.6,6.3-0.3,8c0,0-2.5-0.9-5.9,0
			C4.5,17.1,4.9,13.9,4.3,10.9z"/>
	</g>
</g>
</svg>
