<?xml version="1.0" encoding="utf-8"?>
<!-- Generator: Adobe Illustrator 17.1.0, SVG Export Plug-In . SVG Version: 6.00 Build 0)  -->
<!DOCTYPE svg PUBLIC "-//W3C//DTD SVG 1.1//EN" "http://www.w3.org/Graphics/SVG/1.1/DTD/svg11.dtd">
<svg version="1.1" id="Isolation_Mode" xmlns="http://www.w3.org/2000/svg" xmlns:xlink="http://www.w3.org/1999/xlink" x="0px"
	 y="0px" viewBox="0 0 278.6 332.7" enable-background="new 0 0 278.6 332.7" xml:space="preserve">
<g>
	<g>
		<polygon fill="#050707" points="153.2,315.5 156.9,331.6 163.9,331.6 167.4,317 		"/>
		<ellipse fill="#050707" cx="160.4" cy="331.5" rx="3.5" ry="1.2"/>
	</g>
	<g>
		<polygon fill="#050707" points="254.4,315.5 258.1,331.6 265,331.6 268.5,317 		"/>
		<ellipse fill="#050707" cx="261.5" cy="331.5" rx="3.5" ry="1.2"/>
	</g>
	<path fill="#A03658" d="M245.2,253.5l0.5-60.1c0,0-3.6-43.8,32.5-47.3v157c0,0,3.8,17.1-12.3,16.2H150l-21.6-52.8
		c0,0-5.4-27.2,19.2-33.7c24.5-6.4,33-10,33-10l59.3-0.4L245.2,253.5z"/>
	<path fill="#BF628B" d="M245.2,253.5h-108c0,0-6.1-18,23.2-24.1l44.9-6.7l40.4-0.3L245.2,253.5z"/>
	<path fill="#F6E0D0" d="M146.6,16.8c0,0-1.1,12.5-4.6,24.1c-3.2,10.7-5.7,16.7-5.7,16.7s-1.4,7.7,5,6.8c3.6-0.5,7.5-1,8.9,0.8v4.9
		c0,0,1.7,1.7,5.2,0.9c8.1-2.1,5.1,6.9-0.6,7.6v8.1c0,0-0.4,6.9,7.1,8.9c8.6,2.2,14.4,0,15.2,2.3c0.8,2.3,0,7.7,0,7.7
		s14.4-1.2,22.1-17.3c0,0-9.6-1.3-9.8-23.5c0,0,7.9,3.7,8.3-6.2c0.4-9.8-3.6-11.3-6-9.4l-3-21.5l-8.7-10.9H146.6z"/>
	<circle fill="#050707" cx="157.2" cy="41.7" r="2.2"/>
	<path fill="#050707" d="M177.8,210.1l-45.5,1.4c0,0-31.5,1.8-51.1,25.2c-21.7,25.9-51.6,57.5-51.6,57.5s4.1,7.7,12.2,12.7
		l47.2-47.8c0,0,16.5-24.5,51.8-19.1l31.6,7.2c0,0,20.6,6.5,32.8-13.4L177.8,210.1z"/>
	<path fill="#343838" d="M164.5,201.2h-41.6c0,0-33.4-0.9-34.9,31.4c-1.5,32.3-6.8,77.3-6.8,77.3s1.5,5.3,15.8,7.1l11.3-69.4
		c0,0-1.1-33.3,28.9-35.6c29.9-2.3,46.2-1.4,46.2-1.4L164.5,201.2z"/>
	<path fill="#050707" d="M137,0c0,0,2.2,3.4,8.7,3.5c9.7,0,29.6,0,29.6,0s26.4,0.7,26.4,23.3c0,4,0,9.1,0,9.1s-0.8,12.1-8,12.9
		c-6.9,0.8-6.6,5.6-6.6,5.6s-5.2,3.5-4.5-2.8V35.7c0,0,1.6-11.2-14.6-10.9h-16.2C151.8,24.7,131.3,23.3,137,0z"/>
	<path fill="#A87C4F" d="M177.8,105.5c0,0,15.9-5.8,21.3-17.3c0,0,21.5,10.1,23.8,33.4c0,0,14.6,89.5-19.8,118.1
		c0,0-15.9-26.2-38.8-38.5C164.5,201.2,184.9,162.5,177.8,105.5z"/>
	<path fill="#A87C4F" d="M100.6,139.4c0,0,32.7,38.5,78.2-16.8l1.8,23.3c0,0-39.5,48.3-86.9,8.6L100.6,139.4z"/>
	<polygon fill="#FFFFFF" points="176.3,105.5 184.9,103 184.9,110.2 176.3,118.8 	"/>
	<path fill="#FFFFFF" d="M177.8,115.4h5.1c0,0,2.6,20.8-5.1,35.5V115.4z"/>
	<g>
		<path fill="#886445" d="M86.8,152.8c-0.7,1.5-2.4,2.2-3.9,1.5l-44-19.2c-1.5-0.7-2.2-2.4-1.5-3.9l0,0c0.7-1.5,2.4-2.2,3.9-1.5
			l44,19.2C86.8,149.5,87.5,151.3,86.8,152.8L86.8,152.8z"/>
		<path fill="#886445" d="M94.5,135.1c-0.7,1.5-2.4,2.2-3.9,1.5l-44-19.2c-1.5-0.7-2.2-2.4-1.5-3.9l0,0c0.7-1.5,2.4-2.2,3.9-1.5
			l44,19.2C94.5,131.8,95.2,133.6,94.5,135.1L94.5,135.1z"/>
		<path fill="#886445" d="M87.9,142.7c-0.7,1.5-2.3,2.3-3.6,1.7l-39-17c-1.3-0.6-1.9-2.3-1.2-3.8l0,0c0.7-1.5,2.3-2.3,3.6-1.7l39,17
			C88,139.5,88.6,141.2,87.9,142.7L87.9,142.7z"/>
		<path fill="#BBD531" d="M44.8,129.4c0,0-1.5-2.9-4.3-3.3c-4-0.5-2.4-3.7,0-3.7c2.8,0,3.2,3,5.4,3.4c2.2,0.4,3.1,1.2,3.9,2.3
			c0.8,1,1.3,2,3.5,1.8c2-0.2,4.5,1,6,3c0.8,1.1,3,2.4,4.6,2c3-0.6,4.8,0.3,5.7,2c0.7,1.2,2.2,2.6,4.6,1.8c3.3-1,4.3,0.8,5.6,2.4
			c0.6,0.8,3.6,1.8,4.7,2c1.1,0.3,5.8,0.3,6,2.9c0.1,2.2-3,2.5-4.5,1.1c-1.4-1.3-2.1-0.1-2.1-0.1l-39-17L44.8,129.4z"/>
		<path fill="#BBD531" d="M49.3,120.7c0,0-1.5-2.9-4.3-3.3c-4-0.5-2.4-3.7,0-3.7c2.8,0,3.2,3,5.4,3.4c2.2,0.4,3.1,1.2,3.9,2.3
			c0.8,1,1.3,2,3.5,1.8c2-0.2,4.5,1,6,3c0.8,1.1,3,2.4,4.6,2c3-0.6,4.8,0.3,5.7,2c0.7,1.2,2.2,2.6,4.6,1.8c3.3-1,4.3,0.8,5.6,2.4
			c0.6,0.8,3.6,1.8,4.7,2.1c1.1,0.3,5.8,0.3,6,2.9c0.1,2.2-3,2.5-4.5,1.1c-1.4-1.3-2.1-0.1-2.1-0.1l-39-17L49.3,120.7z"/>
		<path fill="#EE9EC0" d="M84.8,147.3c-0.3,0.7-1.1,1-1.8,0.7l-39.4-17.2c-0.7-0.3-1-1.1-0.7-1.8l0,0c0.3-0.7,1.1-1,1.8-0.7
			l39.4,17.2C84.8,145.9,85.1,146.7,84.8,147.3L84.8,147.3z"/>
		<path fill="#EE9EC0" d="M88.5,138.9c-0.3,0.7-1.1,1-1.8,0.7l-39.4-17.2c-0.7-0.3-1-1.1-0.7-1.8l0,0c0.3-0.7,1.1-1,1.8-0.7
			l39.4,17.2C88.5,137.4,88.8,138.2,88.5,138.9L88.5,138.9z"/>
	</g>
	<path fill="#F6E0D0" d="M94.2,155c0,0-15.1,1.6-21.9-4.7c0,0-1.6-2.4,0-3.9c0,0,12.5,4.5,12.9-2.6c0.4-7-17.8-16.4-17.8-16.4
		s-1.1-3.3,2.6-2.7c3.7,0.6,13.4,5.7,18.3,11.4c0,0,1.5,1.9,1.7,0.2c0.2-1.7-11.8-11.2-20.7-13.4c0,0-0.4-4.1,4.4-2.4
		c4.7,1.7,15.4,8.3,19.4,12.4c0,0,1.4,0.7,1.1-0.6c0,0-3.9-4.9-18.6-12.2c0,0,1.4-2.8,5.6-0.3c4.2,2.5,11.9,7.4,15,10.7
		c0,0,0.9,0.9,1.3,0.4c0.4-0.5-0.3-1.5-0.3-1.5s-9.5-6.9-13.1-9.1c0,0,1.5-1.5,4.5,0.3c3,1.8,11,6.8,13.4,11.7
		c2.4,4.9-0.2,10.4-0.2,10.4l-7.6,12.4"/>
	<path fill="#BD9169" d="M218.4,246.4L211.3,136c0,0-2.2-22.9,10.7-23.9c11.1-0.9,10.7,20.8,10.7,20.8l1.3,113.5H218.4z"/>
	<path fill="#F6E0D0" d="M227.1,267.1c-1-2.5-1.2-8.2-1.2-8.2s0.9,6.7,2.5,8.8c0.6,0.9,2.4,2.9,4.4,5.1c0.1,0,0.2,0,0.4,0
		c1.4,0,1.9-3,1.1-4.1c-2.4-3.1-4-4-3-8.1c1-4,5.8-6,3-14.3h-15.7c0,0-10.4,1.9-13.2,5.3c-2.8,3.4-6.2,9-3.8,14.8c0,0,2.7,2.7,3.8,0
		c1.2-2.7,1.4-8.1,4.7-9.6c0,0-0.5,6.4-0.4,12.3c0.1,2.8,5.8,10.2,7.2,10.7c1.3,0.6,2.9,0.1,3.5-1.6c0,0-4.4-6.1-5.2-8.7
		c-0.7-2.6,0.8-11.1,0.8-11.1s-0.8,8.5,0.4,10.9c1.3,2.7,8.2,11.5,8.2,11.5c2.4-0.6,2.8-2.9,1.8-5.1c-1.4-2.1-4.4-6-4.9-8
		c-0.7-2.6-0.4-9.2-0.4-9.2s0.1,6.7,1.3,9.1c0.9,1.6,7.2,9.8,7.2,9.8c0.5,0.1,1,0.2,1.5-0.2c1.2-0.8,0.7-2.4,0.4-3.9
		C229.6,271.4,227.6,268.4,227.1,267.1z"/>
	<path fill="#A87C4F" d="M97,317c0,0-8.8-1.2-15.8-7.1c-12.1-10.3-25.9-8-32.4,2.4c0,0,23.5,10.9,45,15.6L97,317z"/>
	<path fill="#A87C4F" d="M42.2,306.6c0,0-7.6-4.6-11.6-12.8C23.7,279.5,10.1,276,0,283c0,0,17.2,19.4,35,32.3L42.2,306.6z"/>
</g>
</svg>
