<?xml version="1.0" encoding="utf-8"?>
<!-- Generator: Adobe Illustrator 17.1.0, SVG Export Plug-In . SVG Version: 6.00 Build 0)  -->
<!DOCTYPE svg PUBLIC "-//W3C//DTD SVG 1.1//EN" "http://www.w3.org/Graphics/SVG/1.1/DTD/svg11.dtd">
<svg version="1.1" id="Isolation_Mode" xmlns="http://www.w3.org/2000/svg" xmlns:xlink="http://www.w3.org/1999/xlink" x="0px"
	 y="0px" viewBox="0 0 83.4 57.7" enable-background="new 0 0 83.4 57.7" xml:space="preserve">
<path fill="#FFFFFF" d="M83.4,26.8c0-6.8-5.5-12.3-12.3-12.3c-0.7,0-1.3,0.1-1.9,0.2C66.2,6.1,58.1,0,48.6,0
	c-6.5,0-12.3,2.8-16.3,7.3c-3.1-1.7-6.7-2.7-10.5-2.7C9.7,4.6,0,14.3,0,26.4c0,12,9.7,21.8,21.8,21.8c1.9,0,3.8-0.2,5.5-0.7
	c2.9,6.1,9.1,10.3,16.3,10.3c6.8,0,12.8-3.8,15.8-9.4c1.6,1.8,3.8,2.9,6.3,2.9c4.7,0,8.5-3.8,8.5-8.5c0-1.4-0.3-2.7-0.9-3.8
	C79,37.9,83.4,32.9,83.4,26.8z"/>
</svg>
