<?xml version="1.0" encoding="utf-8"?>
<!-- Generator: Adobe Illustrator 17.1.0, SVG Export Plug-In . SVG Version: 6.00 Build 0)  -->
<!DOCTYPE svg PUBLIC "-//W3C//DTD SVG 1.1//EN" "http://www.w3.org/Graphics/SVG/1.1/DTD/svg11.dtd">
<svg version="1.1" id="Isolation_Mode" xmlns="http://www.w3.org/2000/svg" xmlns:xlink="http://www.w3.org/1999/xlink" x="0px"
	 y="0px" viewBox="0 0 79.3 44.4" enable-background="new 0 0 79.3 44.4" xml:space="preserve">
<g>
	<path fill="#B1CDCE" d="M26.7,8.6l23-8.6l4.6,2.5c0,0,2.4,1.4-1.2,4c-3.5,2.6-11.7,8.2-11.7,8.2L26.2,8.5"/>
	<path fill="#B1CDCE" d="M68.1,19.6c0.1-1.3,11.2-10.5,11.2-10.5l-6.3-1.8c-14.8,7.9-23.2,6.8-23.2,6.8L18.4,5.2
		c-5.2-1.5-7.7,1.3-7.7,1.3S1.6,3.4,0.2,8.4c-1.6,5.5,7.2,8,7.2,8l16.2,5.8l12,19.6l8.5,2.4c3.5,1.1,3.2-2.8,3.2-2.8l-5.6-15.3
		c0,0,4.7,0.9,12.9,1.1c8.3,0.2,15.6-1.5,16.1-4.4C71.1,21.4,68.1,20.8,68.1,19.6z M17.8,11.3l-0.4,1.5c-0.1,0.4-0.5,0.6-0.8,0.5
		l-0.8-0.2c-0.4-0.1-0.6-0.5-0.5-0.8l0.4-1.5c0.1-0.4,0.5-0.6,0.8-0.5l0.8,0.2C17.7,10.6,17.9,11,17.8,11.3z M22.7,12.7l-0.4,1.5
		c-0.1,0.4-0.5,0.6-0.8,0.5l-0.8-0.2c-0.4-0.1-0.6-0.5-0.5-0.8l0.4-1.5c0.1-0.4,0.5-0.6,0.8-0.5l0.8,0.2
		C22.6,12,22.8,12.3,22.7,12.7z M27.6,14.1l-0.4,1.5c-0.1,0.4-0.5,0.6-0.8,0.5l-0.8-0.2c-0.4-0.1-0.6-0.5-0.5-0.8l0.4-1.5
		c0.1-0.4,0.5-0.6,0.8-0.5l0.8,0.2C27.5,13.3,27.7,13.7,27.6,14.1z M32.5,15.4L32.1,17c-0.1,0.4-0.5,0.6-0.8,0.5l-0.8-0.2
		c-0.4-0.1-0.6-0.5-0.5-0.8l0.4-1.5c0.1-0.4,0.5-0.6,0.8-0.5l0.8,0.2C32.4,14.7,32.6,15.1,32.5,15.4z M37.4,16.8L37,18.3
		c-0.1,0.4-0.5,0.6-0.8,0.5l-0.8-0.2c-0.4-0.1-0.6-0.5-0.5-0.8l0.4-1.5c0.1-0.4,0.5-0.6,0.8-0.5l0.8,0.2
		C37.3,16.1,37.5,16.4,37.4,16.8z M42.3,18.2l-0.4,1.5c-0.1,0.4-0.5,0.6-0.8,0.5l-0.8-0.2c-0.4-0.1-0.6-0.5-0.5-0.8l0.4-1.5
		c0.1-0.4,0.5-0.6,0.8-0.5l0.8,0.2C42.2,17.4,42.4,17.8,42.3,18.2z M47.2,19.5l-0.4,1.5c-0.1,0.4-0.5,0.6-0.8,0.5l-0.8-0.2
		c-0.4-0.1-0.6-0.5-0.5-0.8l0.4-1.5c0.1-0.4,0.5-0.6,0.8-0.5l0.8,0.2C47.1,18.8,47.3,19.2,47.2,19.5z M52.4,20.8L52,22.3
		c-0.1,0.4-0.5,0.6-0.8,0.5l-0.8-0.2c-0.4-0.1-0.6-0.5-0.5-0.8l0.4-1.5c0.1-0.4,0.5-0.6,0.8-0.5l0.8,0.2
		C52.3,20.1,52.5,20.4,52.4,20.8z"/>
</g>
</svg>
