<?xml version="1.0" encoding="utf-8"?>
<!-- Generator: Adobe Illustrator 17.1.0, SVG Export Plug-In . SVG Version: 6.00 Build 0)  -->
<!DOCTYPE svg PUBLIC "-//W3C//DTD SVG 1.1//EN" "http://www.w3.org/Graphics/SVG/1.1/DTD/svg11.dtd">
<svg version="1.1" id="Isolation_Mode" xmlns="http://www.w3.org/2000/svg" xmlns:xlink="http://www.w3.org/1999/xlink" x="0px"
	 y="0px" viewBox="0 0 514.1 422.9" enable-background="new 0 0 514.1 422.9" xml:space="preserve">
<g>
	<polygon fill="#8FB7B9" points="271.8,0 29.5,377.9 271.8,377.9 271.8,0 	"/>
	<polygon fill="#C0D9DE" points="271.8,0 271.8,377.9 514.1,377.9 	"/>
	<polygon opacity="0.3" fill="#5A969F" points="271.8,0 29.5,377.9 209.2,378 351.8,124.8 	"/>
	<polygon fill="#B1CDCE" points="223.8,74.9 271.8,74.9 271.8,0 	"/>
	<polygon fill="#E0ECEF" points="271.8,74.9 271.8,0 319.8,74.9 	"/>
	<polygon fill="#8FB7B9" points="175.5,54.9 0,422.9 175.5,422.9 175.5,54.9 	"/>
	<polygon fill="#C0D9DF" points="175.5,54.9 175.5,422.9 351.2,422.9 	"/>
	<polygon fill="#B1CDCE" points="150.8,106.7 175.5,106.7 175.5,54.9 	"/>
	<polygon fill="#E0ECEF" points="175.5,106.7 175.5,54.9 200.2,106.7 	"/>
</g>
<g>
	<rect x="136.1" y="375" fill="#050707" width="1.5" height="22.6"/>
	<polygon fill="#BE1E2D" points="146.8,374.8 136.1,380.7 136.1,369.4 	"/>
</g>
<g>
	<rect x="215.8" y="303.4" fill="#050707" width="0.8" height="12.1"/>
	<polygon fill="#BE1E2D" points="221.5,303.3 215.8,306.4 215.8,300.4 	"/>
</g>
<g>
	<rect x="299.7" y="268.4" fill="#050707" width="0.6" height="9"/>
	<polygon fill="#BE1E2D" points="304,268.3 299.7,270.6 299.7,266.1 	"/>
</g>
<g>
	<rect x="328" y="244" fill="#050707" width="0.3" height="5"/>
	<polygon fill="#BE1E2D" points="330.4,244 328,245.2 328,242.8 	"/>
</g>
<path fill="#FFFFFF" d="M256.6,421.2c0-12.3-19.3-21.7,14.1-77.7c10.1-16.9-25.6-14.7-23.6-26.1c1-5.7,60.4-11.9,63.6-18
	c3.2-6.2-19-8.1-19.4-14.6c-0.5-7.1,52.4-7.3,53.7-18.8c0.8-7.3-17.1-9.1-16.9-12.7c0.2-5.9,28.2-6.3,28.2-6.3v-2.9
	c-33.4,1.3-39.8,7.9-29.3,13.3c11.5,5.8,21.8,10.1-18.8,16.9c-32.2,5.4-43.7,6.7-25.9,15.1c18.7,8.9,11.4,10.8-38.5,17
	c-27.3,3.4-44.8,11.9-26.7,26.3c14.1,11.2-18,26.8-28.9,32.8c-56.8,31.3-86.5,55.8-86.5,55.8H256.6z"/>
<g>
	<rect x="255.7" y="356.3" fill="#050707" width="1.1" height="16.2"/>
	<polygon fill="#BE1E2D" points="263.4,356.2 255.7,360.3 255.7,352.3 	"/>
</g>
<g>
	<rect x="274.6" y="297.8" fill="#050707" width="0.7" height="11.3"/>
	<polygon fill="#BE1E2D" points="280,297.7 274.6,300.6 274.6,295 	"/>
</g>
<path fill="#FFFFFF" d="M356.1,244.1c0,0,33.8-0.4,37.4-5.2c4.9-6.5,5.7-9.9,11.3-11.5c5.3-1.6,4.5-4.7-2.4-4.2s8-7,8-7l0.9,1.3
	c0,0-6.5,2.7-6.5,4.2c0.1,1.5,6,0.6,5.9,3.7c-0.1,3.1-6,2.8-9.6,6.1c-3.6,3.4-2,11.2-17.4,13.4c-5.7,0.8-27.6,2.1-27.6,2.1V244.1z"
	/>
<g>
	<rect x="367.7" y="241.5" fill="#050707" width="0.3" height="5"/>
	<polygon fill="#BE1E2D" points="370.1,241.5 367.7,242.7 367.7,240.3 	"/>
</g>
<g>
	<rect x="395.1" y="231.7" fill="#050707" width="0.3" height="5"/>
	<polygon fill="#BE1E2D" points="397.4,231.6 395.1,232.9 395.1,230.4 	"/>
</g>
</svg>
