<?xml version="1.0" encoding="utf-8"?>
<!-- Generator: Adobe Illustrator 17.1.0, SVG Export Plug-In . SVG Version: 6.00 Build 0)  -->
<!DOCTYPE svg PUBLIC "-//W3C//DTD SVG 1.1//EN" "http://www.w3.org/Graphics/SVG/1.1/DTD/svg11.dtd">
<svg version="1.1" id="Isolation_Mode" xmlns="http://www.w3.org/2000/svg" xmlns:xlink="http://www.w3.org/1999/xlink" x="0px"
	 y="0px" viewBox="0 0 299.5 306.4" enable-background="new 0 0 299.5 306.4" xml:space="preserve">
<g>
	<path fill="#050707" d="M164.5,227.2c0,0-4.8-5.2-25.7-16.6c-21.4-11.6-22.6-28.3-8.2-43c14.4-14.8,36.5-10.2,44.4,4.6
		c7.8,14.7,19.9,34.8,43.3,46.9c17,8.8,30.8,17.2,44.5,22.5c14.4,5.5,31.3-1.8,36.2,22.7c6.6,32.5-39.7,41.4-72.9,6.8
		c-33.1-34.5-18.5-11.9-31.4-25.2C181.8,232.6,164.5,227.2,164.5,227.2z"/>
	<path fill="#BE1E2D" d="M97,112l-24.8-1.6c-0.9,2-6.1,6.2-5.5,17.6l32.6,2.3c0,0.4,0.1,0.7,0.1,0.7c0.3-0.2,0.5-0.4,0.8-0.6
		l0.9,0.1c0,0,0.2-0.4,0.5-1.2c45.4-36,97-21.2,97-21.2V86.5C151.4,78.8,106.1,106.1,97,112z"/>
	<path fill="#E5BE9A" d="M98.8,49.7c0,0-15.9-3.8-34.2,23.1l5.9,6.9c0,0-2.7,2.4-5.2,6.1c-2.3,3.3-3.1,5.4-3.9,9.3
		c-0.4,2.6-0.1,5.4,1.2,8.1c5.5,11.7,19.7,13.8,25.5,13.5c5.9-0.3,14.9-8.4,19.1-17.1C111.4,90.9,127.5,58.3,98.8,49.7z"/>
	<polygon fill="#050707" points="110.8,79.5 98.3,111.6 117,116.9 128.6,78.4 	"/>
	<path fill="#C0D9DE" d="M69.1,59.4l9.9-7.6c0,0,16.6,15.3,16.4,16c-0.2,0.7-0.9,9.3-0.9,9.3l-8.8,3l-5.7-1.6l-6.2-5.8L69.1,59.4z"
		/>
	<path fill="#305411" d="M151.9,75.1c-0.6,0-1.3,0.1-1.8,0.4c-6.3-6.9-13.8-8.2-18.6-8.1c0-0.7-0.1-1.3-0.2-2
		C128.9,46.1,98.1,42,85.7,52.6c0,0,7.7,26.3,27.7,34.2c0,0,17.5-1.8,18.1-17.5c4.3-0.1,11.1,1,17,7.2c-1,0.9-1.6,2.2-1.6,3.6
		c0,2.8,2.2,5,5,5c2.8,0,5-2.2,5-5C156.9,77.4,154.7,75.1,151.9,75.1z"/>
	<path fill="#BE1E2D" d="M31.9,17.1c0.9-1,10.3-10.2,14.4-12.4c4.4-2.4,6.4,2.7,6.4,2.7c1.7-1.5,8-4.9,11.5-6.3
		c3.5-1.4,4.9-2,8.4,1.7c3.7,4,5.9,6.6-4.3,13.4c-12.5,8.5-22.7,12.4-22.7,12.4L31.9,17.1z"/>
	<path fill="#BE1E2D" d="M213.2,173.3c0.4,1.2,3.7,13.5,3.6,17.9c-0.1,4.7-5.5,3.7-5.5,3.7c0.5,2.1,0.3,8.9-0.2,12.4
		c-0.5,3.5-0.7,4.9-5.5,5.7c-5.2,0.8-8.4,1.2-9.4-10.4c-1.1-14.3,0.5-24.5,0.5-24.5L213.2,173.3z"/>
	<path fill="#050707" d="M52.3,253.8l53.2-20.9c0,0,7.4,21,36.3,19.3c20.8-1.3,26.3-19.3,26.3-19.3l16.1,16c0,0-8.9,22-40.7,26
		c-30.7,3.9-51-21.4-51-21.4l-4.8,1.9c0,0,17.9,30.4,57,27.5c34.9-2.6,49-29.1,49-29.1l19.2,16.3c0,0-13.2,26.1-65,35.2
		C107.7,312.4,72.3,282.9,52.3,253.8z"/>
	<path fill="#305411" d="M211.7,239.7c-4.4-2.8-7.3-0.5-8.7,1.2c-3.9-3.8-15.4-15.2-19.4-19c-4.7-4.5-8.3,2-8.3,2l-7.6,9.8
		c0,0,11.2,10.7,15.5,14.4c2.4,2.1,2.2,2.6,11.2,6.5l18.4,15.6l4-4.7c20.7,14.9,30.1-2.6,30.1-2.6S218.3,243.8,211.7,239.7z"/>
	<path fill="#050707" d="M115.6,87.9l-14.3-11.8c0.4-2.6,0.4-6.9-2.3-10.1c-5.2-6.1-11.1-12.5-11.1-12.5l-6.9-3.1L77.5,53
		c0,0,11,12.6,13.1,14.9c2.3,2.5,1.8,6.3-1.9,8.7c-4.8,3.2-11.1-0.5-15.2-10.1C72,63.3,73.9,61,72.2,57L67,61.2
		c0.1,0.5,3.8,13.6,10.8,19c5.1,4,11.3,5.6,17.4,5l13.4,11.1L115.6,87.9z"/>
	<path fill="#305411" d="M192.3,137.7c-14.5-13.8-40.7-18.5-63.5-9c-22.4,9.3-27.4,1.2-27.4,1.2L66.7,128c0,0-2.6-0.4-5.4-0.6
		c-8.3-0.9-14.5,2.9-27-5.8c-14.3-10-16.6-29.2-16.6-29.6c-2-27.2,15.2-53.8,27.9-63.5c0,0-12.5-11.5-12.9-12.1
		c0,0-32.7,23.9-32.7,70.3c0,46.4,28.8,61,36.2,67.8c0,0-16.2,58.3,12.1,100.8l61.4-24.2c0,0-11.6-43.1,5.4-70.4
		c17-27.3,55-22.4,68.5-8.3c13.7,14.5,11.1,27.6,12.2,28.3c1,0.7,19.6-0.4,19.6-0.4S212.3,156.8,192.3,137.7z"/>
</g>
</svg>
