<?xml version="1.0" encoding="utf-8"?>
<!-- Generator: Adobe Illustrator 17.1.0, SVG Export Plug-In . SVG Version: 6.00 Build 0)  -->
<!DOCTYPE svg PUBLIC "-//W3C//DTD SVG 1.1//EN" "http://www.w3.org/Graphics/SVG/1.1/DTD/svg11.dtd">
<svg version="1.1" id="Isolation_Mode" xmlns="http://www.w3.org/2000/svg" xmlns:xlink="http://www.w3.org/1999/xlink" x="0px"
	 y="0px" viewBox="0 0 181.3 255.9" enable-background="new 0 0 181.3 255.9" xml:space="preserve">
<g>
	<circle fill="#FFFFFF" cx="113.2" cy="205.7" r="4.2"/>
	<circle fill="#FFFFFF" cx="43.6" cy="221.1" r="4.2"/>
	<circle fill="#FFFFFF" cx="106.4" cy="233" r="4.2"/>
	<circle fill="#FFFFFF" cx="139.7" cy="163.4" r="4.2"/>
	<circle fill="#FFFFFF" cx="102.2" cy="131.1" r="4.2"/>
	<circle fill="#FFFFFF" cx="104.8" cy="149.9" r="4.2"/>
	<circle fill="#FFFFFF" cx="59.3" cy="134.8" r="4.2"/>
	<circle fill="#FFFFFF" cx="48.3" cy="98.7" r="4.2"/>
	<circle fill="#FFFFFF" cx="67.7" cy="91.6" r="4.2"/>
	<circle fill="#FFFFFF" cx="92.3" cy="195.1" r="6.2"/>
	<circle fill="#FFFFFF" cx="148.3" cy="122.2" r="6.2"/>
	<circle fill="#FFFFFF" cx="81" cy="128.4" r="6.2"/>
	<circle fill="#FFFFFF" cx="148.3" cy="188.8" r="4.2"/>
	<circle fill="#FFFFFF" cx="67.7" cy="193" r="4.2"/>
	<circle fill="#FFFFFF" cx="81" cy="110.7" r="2.6"/>
	<circle fill="#FFFFFF" cx="67.7" cy="220.1" r="2.6"/>
	<circle fill="#FFFFFF" cx="29.4" cy="199.6" r="2.6"/>
	<circle fill="#FFFFFF" cx="2.6" cy="233" r="2.6"/>
	<circle fill="#FFFFFF" cx="50.9" cy="79.6" r="2.6"/>
	<circle fill="#FFFFFF" cx="70.3" cy="60.5" r="2.6"/>
	<circle fill="#FFFFFF" cx="5.2" cy="87.4" r="2.6"/>
	<circle fill="#FFFFFF" cx="92.3" cy="170.7" r="2.6"/>
	<circle fill="#FFFFFF" cx="130.4" cy="98.7" r="2.6"/>
	<circle fill="#FFFFFF" cx="111.6" cy="184.7" r="2.6"/>
	<circle fill="#FFFFFF" cx="89.3" cy="213.3" r="2.6"/>
	<circle fill="#FFFFFF" cx="48.3" cy="113.3" r="2.6"/>
	<circle fill="#FFFFFF" cx="31.9" cy="82.2" r="2.6"/>
	<circle fill="#FFFFFF" cx="137.1" cy="141.9" r="2.6"/>
	<circle fill="#FFFFFF" cx="124.5" cy="156.4" r="2.6"/>
	<circle fill="#FFFFFF" cx="124.5" cy="72.6" r="2.6"/>
	<circle fill="#FFFFFF" cx="94.5" cy="84.8" r="2.6"/>
	<circle fill="#FFFFFF" cx="128.7" cy="2.6" r="2.6"/>
	<circle fill="#FFFFFF" cx="128.7" cy="197.7" r="2.6"/>
	<circle fill="#FFFFFF" cx="80.9" cy="237.2" r="2.6"/>
	<circle fill="#FFFFFF" cx="43.6" cy="253.2" r="2.6"/>
	<circle fill="#FFFFFF" cx="124.5" cy="173.3" r="2.6"/>
	<circle fill="#FFFFFF" cx="121.9" cy="126.9" r="2.6"/>
	<circle fill="#FFFFFF" cx="109" cy="103.9" r="2.6"/>
	<circle fill="#FFFFFF" cx="178.7" cy="101.3" r="2.6"/>
	<circle fill="#FFFFFF" cx="130.6" cy="220.1" r="4.2"/>
</g>
</svg>
