<?xml version="1.0" encoding="utf-8"?>
<!-- Generator: Adobe Illustrator 17.1.0, SVG Export Plug-In . SVG Version: 6.00 Build 0)  -->
<!DOCTYPE svg PUBLIC "-//W3C//DTD SVG 1.1//EN" "http://www.w3.org/Graphics/SVG/1.1/DTD/svg11.dtd">
<svg version="1.1" id="Isolation_Mode" xmlns="http://www.w3.org/2000/svg" xmlns:xlink="http://www.w3.org/1999/xlink" x="0px"
	 y="0px" viewBox="0 0 181.3 257.4" enable-background="new 0 0 181.3 257.4" xml:space="preserve">
<g>
	<circle fill="#FFFFFF" cx="106.4" cy="233" r="4.2"/>
	<circle fill="#FFFFFF" cx="70.3" cy="182.8" r="4.2"/>
	<circle fill="#FFFFFF" cx="29.3" cy="232.7" r="4.2"/>
	<circle fill="#FFFFFF" cx="45.7" cy="170.8" r="4.2"/>
	<path fill="#FFFFFF" d="M83.6,110.7c0,1.4-1.2,2.6-2.6,2.6c-1.4,0-2.6-1.2-2.6-2.6c0-1.4,1.2-2.6,2.6-2.6
		C82.5,108,83.6,109.2,83.6,110.7z"/>
	<circle fill="#FFFFFF" cx="67.7" cy="220.1" r="2.6"/>
	<circle fill="#FFFFFF" cx="5.2" cy="187.3" r="2.6"/>
	<circle fill="#FFFFFF" cx="2.6" cy="233" r="2.6"/>
	<circle fill="#FFFFFF" cx="48.3" cy="206.5" r="2.6"/>
	<circle fill="#FFFFFF" cx="70.3" cy="60.5" r="2.6"/>
	<circle fill="#FFFFFF" cx="5.2" cy="87.4" r="2.6"/>
	<circle fill="#FFFFFF" cx="92.3" cy="170.7" r="2.6"/>
	<circle fill="#FFFFFF" cx="130.4" cy="98.7" r="2.6"/>
	<circle fill="#FFFFFF" cx="160.1" cy="127.9" r="2.6"/>
	<path fill="#FFFFFF" d="M157.5,78.8c0,1.4-1.2,2.6-2.6,2.6c-1.4,0-2.6-1.2-2.6-2.6c0-1.4,1.2-2.6,2.6-2.6
		C156.3,76.2,157.5,77.4,157.5,78.8z"/>
	<circle fill="#FFFFFF" cx="111.6" cy="184.7" r="2.6"/>
	<circle fill="#FFFFFF" cx="157.5" cy="190" r="2.6"/>
	<circle fill="#FFFFFF" cx="89.3" cy="213.3" r="2.6"/>
	<circle fill="#FFFFFF" cx="75.4" cy="253.2" r="2.6"/>
	<circle fill="#FFFFFF" cx="48.3" cy="113.3" r="2.6"/>
	<circle fill="#FFFFFF" cx="13.8" cy="138.6" r="2.6"/>
	<circle fill="#FFFFFF" cx="26.7" cy="64.5" r="2.6"/>
	<circle fill="#FFFFFF" cx="137.1" cy="141.9" r="2.6"/>
	<circle fill="#FFFFFF" cx="171.8" cy="162.9" r="2.6"/>
	<circle fill="#FFFFFF" cx="124.5" cy="168.1" r="2.6"/>
	<circle fill="#FFFFFF" cx="124.5" cy="72.6" r="2.6"/>
	<circle fill="#FFFFFF" cx="94.5" cy="84.8" r="2.6"/>
	<circle fill="#FFFFFF" cx="128.7" cy="2.6" r="2.6"/>
	<circle fill="#FFFFFF" cx="43.6" cy="253.2" r="2.6"/>
	<circle fill="#FFFFFF" cx="109" cy="103.9" r="2.6"/>
	<circle fill="#FFFFFF" cx="100.1" cy="136.6" r="2.6"/>
	<path fill="#FFFFFF" d="M62.9,146.3c0,1.4-1.2,2.6-2.6,2.6c-1.4,0-2.6-1.2-2.6-2.6c0-1.4,1.2-2.6,2.6-2.6
		C61.7,143.7,62.9,144.8,62.9,146.3z"/>
	<circle fill="#FFFFFF" cx="26.7" cy="95.3" r="2.6"/>
	<circle fill="#FFFFFF" cx="178.7" cy="101.3" r="2.6"/>
	<circle fill="#FFFFFF" cx="130.6" cy="220.1" r="4.2"/>
	<circle fill="#FFFFFF" cx="130.4" cy="253.2" r="4.2"/>
</g>
</svg>
